<svg xmlns="http://www.w3.org/2000/svg" enable-background="new 0 0 1500 1500"
  viewBox="0 0 1500 1500">
  <rect width="1500" height="1500" x="-404" y="-9.5" fill="none" />
  <path fill="#e0e9f9" fill-rule="evenodd"
    d="M1322.4,780.2c0,211-114.1,395.3-284,494.5c-6.9,4-13.8,7.9-20.9,11.6c-11.9,6.3-24,12.2-36.4,17.7  c-70.7,31.2-148.9,48.6-231.1,48.6c-123.6,0-238.1-39.2-331.7-105.8c-4.4-3.2-8.8-6.4-13.2-9.7c-6.3-4.8-12.5-9.7-18.6-14.7  c-127.6-105-209-264.1-209-442.3c0-217.6,121.4-406.8,300.1-503.6c19.4-10.5,39.6-20,60.3-28.3c18.2-7.3,36.8-13.6,55.9-19  c33.6-9.5,68.5-16,104.4-19.2c17-1.5,34.3-2.3,51.7-2.3s34.7,0.8,51.7,2.3c35.4,3.2,69.8,9.6,103.1,18.9c15.6,4.4,30.9,9.4,45.9,15  c40.5,15.2,78.9,34.8,114.4,58.3c12.2,8.1,24.1,16.6,35.6,25.5c6.1,4.7,12.1,9.6,18.1,14.6C1243.3,447.4,1322.4,604.6,1322.4,780.2z  "
    clip-rule="evenodd" />
  <path fill="#1d77c7" fill-rule="evenodd"
    d="M21796.6,7348.1l-1514.1,17056.6c-129.9,75.1-261.7,147.4-395.2,216.9c-224.8,117.6-454.3,227.3-688.2,329.1    c-1336.3,582-2814.8,905.3-4369.9,905.3c-2337.4,0-4501.7-730.3-6271-1972.1c-83.8-58.7-166.6-118.7-248.6-180L9795.9,6958.2    c63-709,457-1316.9,1024.2-1680.3c309.5-198.6,670.4-324.2,1057.1-353.9c59-4.8,118.7-7.1,178.9-7.1h7480.3    c532.6,0,1044.6,184.5,1449.6,516.2c78.7,64.1,153.1,134,223.1,209.3c356.6,383.7,564.2,875.1,592.5,1388.3    C21807.7,7135.8,21806,7241.8,21796.6,7348.1z"
    clip-rule="evenodd" transform="matrix(.0529 0 0 .05366 -34.327 -34.886)" />
  <path fill="#4fb4f3" fill-rule="evenodd"
    d="M21469.8,7013c-385.1,4340.2-1186.4,13364.9-1564.5,17625.3c-224.8,117.6-454.3,227.3-688.2,329.1    c-1336.3,582-2814.8,905.3-4369.9,905.3c-2337.4,0-4501.7-730.3-6271-1972.1c-83.8-58.7-166.6-118.7-248.6-180    c-119.1-88.5-236.5-179.8-351.7-273.2l1493.4-16824c25.5-287.2,105.3-557.5,229-802c373.4-738.9,1147.3-1239.2,2031.2-1239.2    h7480.3c636,0,1242.9,263.1,1672.7,725.3c42.7,46,83.4,93.5,121.6,142.6c298.7,380.3,464.7,845.4,474.2,1325.3    C21479.7,6854.3,21476.8,6933.7,21469.8,7013z"
    clip-rule="evenodd" transform="matrix(.0529 0 0 .05366 -35.276 -35.788)" />
  <path fill="#fff" fill-rule="evenodd"
    d="M20846.7,6818.1l-1589.5,17906.3c-7.4,82.6-20.8,163.8-40.1,243c-1336.3,582-2814.8,905.3-4369.9,905.3    c-2337.4,0-4501.7-730.3-6271-1972.1l1516.3-17082.5c78.7-886.3,871.6-1604.8,1770.8-1604.8h7497.5    c715.4,0,1282.4,454.7,1444.9,1086.6C20847.8,6462.4,20862.7,6636.8,20846.7,6818.1z"
    clip-rule="evenodd" transform="matrix(.0529 0 0 .05366 -35.276 -35.788)" />
  <path fill="#004970" fill-rule="evenodd"
    d="M22639.4,10841.3c9.4-140.1-26.8-278.8-99.9-382.5c-73.1-103.6-176.3-162.7-284.4-162.7    c-643.1,0-1863.2,0-2506.1,0c-238,0-436.5,236.5-457.3,544.6v0.1c-9.4,140.1,26.8,278.8,99.9,382.5    c73.1,103.6,176.3,162.7,284.4,162.7c643.1,0,1863.2,0,2506.1,0C22420.1,11386,22618.6,11149.5,22639.4,10841.3    C22639.4,10841.4,22639.4,10841.3,22639.4,10841.3z"
    clip-rule="evenodd" transform="matrix(.03862 0 0 .02971 -23.697 -27.762)" />
  <rect width="918.5" height="1042.7" x="317.9" y="76.7" fill="none" />
  <path fill="#1d77c7" fill-opacity=".2" fill-rule="evenodd"
    d="M392.4,1159.7c101.7,92.4,236.7,148.8,384.8,148.8c95.2,0,185-23.3,264-64.5l-2.7,30.6  c-84.7,49.6-183.3,78-288.5,78c-137.6,0-263.8-48.6-362.6-129.6L392.4,1159.7z"
    clip-rule="evenodd" />
  <path fill="#dbf2ff" fill-rule="evenodd"
    d="M627.8,860.4l14.1,3c10.5,2.2,20.8-4.5,23.1-15c2.2-10.5-4.5-20.8-15-23.1l-56.1-11.8  c-9.9-2.1-19.8,3.8-22.7,13.6l-16.8,57.1c-3,10.3,2.9,21.1,13.2,24.2s21.1-2.9,24.2-13.2l3.8-12.9c32.4,45.2,85.6,74.3,148,74.3  c107.5,0,202.5-87.3,211.9-194.8c0.9-10.7-7-20.2-17.7-21.1c-10.7-0.9-20.2,7-21.1,17.7c-7.7,87.9-85.2,159.2-173.1,159.2  C694.9,917.5,653.3,895.3,627.8,860.4z M889.3,658.5l-13-4.3c-10.2-3.4-21.2,2.1-24.6,12.3c-3.4,10.2,2.1,21.2,12.3,24.6l53.9,17.9  c9.7,3.2,20.3-1.6,24.1-11.1l22.8-55.5c4.1-9.9-0.7-21.3-10.6-25.4c-9.9-4.1-21.3,0.7-25.4,10.6l-5,12.2  c-32.2-46.4-86-76.3-149.4-76.3c-107.5,0-202.5,87.3-211.9,194.8c-0.9,10.7,7,20.2,17.7,21.1c10.7,0.9,20.1-7,21.1-17.7  c7.7-87.9,85.2-159.2,173.1-159.2C822.6,602.5,863.8,624.2,889.3,658.5z"
    clip-rule="evenodd" />
  <path fill="#2aaeff" fill-rule="evenodd"
    d="M607.8,840.3l14.1,3c10.5,2.2,20.8-4.5,23.1-15c2.2-10.5-4.5-20.8-15-23.1l-56.1-11.8  c-9.9-2.1-19.8,3.8-22.7,13.6l-16.8,57.1c-3,10.3,2.9,21.1,13.2,24.2s21.1-2.9,24.2-13.2l3.8-12.9c32.4,45.2,85.6,74.3,148,74.3  c107.5,0,202.5-87.3,211.9-194.8c0.9-10.7-7-20.2-17.7-21.1c-10.7-0.9-20.2,7-21.1,17.7c-7.7,87.9-85.2,159.2-173.1,159.2  C674.9,897.5,633.3,875.3,607.8,840.3z M869.3,638.4l-13-4.3c-10.2-3.4-21.2,2.1-24.6,12.3s2.1,21.2,12.3,24.6l53.9,17.9  c9.7,3.2,20.3-1.6,24.1-11.1l22.8-55.5c4.1-9.9-0.7-21.3-10.6-25.4c-9.9-4.1-21.3,0.7-25.4,10.6l-5,12.2  c-32.2-46.4-86-76.3-149.4-76.3c-107.5,0-202.5,87.3-211.9,194.8c-0.9,10.7,7,20.2,17.7,21.1c10.7,0.9,20.1-7,21.1-17.7  c7.7-87.9,85.2-159.2,173.1-159.2C802.6,582.5,843.8,604.2,869.3,638.4z"
    clip-rule="evenodd" />
  <path fill="#2aaeff"
    d="M690.4,763.3c-0.9,0.7-2,1.3-3.5,1.7c-1.4,0.4-3.1,0.6-5.1,0.6c-1.9,0-3.7-0.3-5.3-0.9s-2.8-2-3.5-4.1   l-5-15.8c-0.5-1.6-0.9-3.1-1.3-4.6c-0.4-1.4-0.8-3.1-1.2-5l-0.5,0.1c-0.3,2.8-0.7,5.7-1.2,8.6c-0.5,2.9-1,5.8-1.5,8.6l-2.1,12.1   c-0.6,0.2-1.5,0.3-2.7,0.5c-1.2,0.2-2.4,0.2-3.5,0.2c-1.1,0-2.1-0.1-3-0.2s-1.5-0.5-2-0.9c-0.5-0.5-0.8-1.1-1-1.9   c-0.2-0.8-0.1-1.9,0.1-3.2l6.9-39c0.9-1,2.2-1.8,3.8-2.3c1.6-0.5,3.3-0.8,5-0.8c1.9,0,3.7,0.3,5.3,0.9c1.6,0.6,2.8,2,3.5,4.1   l5,15.8c0.5,1.6,0.9,3.1,1.3,4.6c0.4,1.4,0.8,3.1,1.2,5l0.4-0.1c0.3-2.8,0.7-5.6,1.1-8.4c0.4-2.8,0.9-5.6,1.4-8.4l2.2-12.6   c0.6-0.2,1.5-0.3,2.7-0.5c1.2-0.2,2.4-0.2,3.5-0.2c2.3,0,4,0.4,5,1.2c1.1,0.8,1.4,2.5,0.9,5L690.4,763.3z" />
  <path fill="#2aaeff"
    d="M707.3,724.9c0.4-2.2,1.4-4,2.9-5.3c1.5-1.3,3.4-2,5.7-2h25.8c0.3,0.6,0.5,1.3,0.6,2.3c0.1,0.9,0.1,1.9-0.1,3   c-0.3,2-1,3.4-2,4.2c-1,0.8-2.2,1.2-3.6,1.2h-16.5l-1.3,7.3h17.6c0.3,0.6,0.5,1.3,0.6,2.2c0.1,0.9,0.1,1.9-0.1,2.9   c-0.3,2-1,3.4-2,4.2c-1,0.8-2.2,1.2-3.6,1.2h-14.4l-1.4,8.2h20.1c0.3,0.6,0.5,1.3,0.6,2.3c0.1,0.9,0.1,1.9-0.1,3   c-0.3,2-1,3.4-2,4.3c-1,0.9-2.2,1.3-3.6,1.3h-22.8c-2.2,0-3.9-0.7-5-2c-1.1-1.3-1.4-3.1-1-5.3L707.3,724.9z" />
  <path fill="#2aaeff"
    d="M771.2,729.2c0.6-0.3,1.6-0.6,2.9-0.9c1.3-0.3,2.5-0.5,3.8-0.5c2.2,0,4,0.3,5.3,1c1.3,0.7,2.1,1.6,2.2,2.8   c0.2,2.1,0.4,4.1,0.5,6c0.2,1.8,0.3,3.6,0.5,5.3c0.2,1.7,0.3,3.4,0.5,5c0.1,1.7,0.3,3.4,0.4,5.2h0.4c1-3.2,2-6.2,2.9-9.1   c0.9-2.9,1.7-5.7,2.5-8.5c0.8-2.8,1.6-5.5,2.4-8.3c0.8-2.7,1.6-5.5,2.4-8.3c2.1-1.1,4.3-1.6,6.5-1.6c1.9,0,3.5,0.4,4.8,1.2   c1.3,0.8,1.7,2.2,1.4,4.2c-0.2,1.1-0.6,2.8-1.2,4.9c-0.6,2.1-1.3,4.5-2.2,7.1c-0.8,2.6-1.8,5.3-2.8,8.2c-1,2.9-2.1,5.6-3.1,8.2   c-1,2.6-2,5-3,7.1s-1.8,3.7-2.5,4.9c-0.9,0.7-2.3,1.3-4.1,1.8c-1.9,0.5-3.7,0.7-5.6,0.7c-2.4,0-4.5-0.3-6-1   c-1.6-0.7-2.4-1.6-2.6-2.8c-0.3-2.1-0.6-4.6-0.9-7.4c-0.3-2.9-0.6-6-0.8-9.4c-1.3,3.4-2.7,6.7-4,9.9c-1.3,3.2-2.5,6-3.6,8.2   c-0.9,0.7-2.2,1.3-3.8,1.8c-1.6,0.5-3.4,0.7-5.3,0.7c-2.3,0-4.4-0.3-6.2-1c-1.8-0.7-2.9-1.6-3.2-2.8c-0.3-0.9-0.6-2.3-0.8-4.2   c-0.2-1.8-0.4-4-0.6-6.3c-0.2-2.4-0.3-4.9-0.4-7.7c-0.1-2.8-0.2-5.5-0.2-8.3c0-2.8,0-5.5,0.1-8.1c0-2.6,0.2-5,0.3-7.2   c0.8-0.7,2-1.3,3.4-1.9c1.4-0.6,2.9-0.9,4.4-0.9c2,0,3.5,0.4,4.7,1.3c1.1,0.9,1.7,2.3,1.6,4.3c-0.1,5.3-0.2,9.7-0.3,13.3   c-0.1,3.5-0.1,6.4-0.2,8.7c-0.1,2.3-0.1,4-0.2,5.3c-0.1,1.2-0.1,2.2-0.1,3h0.4c0.8-2.1,1.6-4,2.3-5.8c0.7-1.8,1.5-3.6,2.2-5.3   s1.6-3.7,2.4-5.8C769.3,734.2,770.2,731.8,771.2,729.2z" />
  <path fill="#2aaeff"
    d="M810.5,759c0.4-2.1,1.4-3.9,2.9-5.3s3.5-2.1,5.9-2.1s4.1,0.7,5.1,2.1c1.1,1.4,1.4,3.1,1.1,5.3   c-0.4,2.1-1.3,3.9-2.9,5.3c-1.6,1.4-3.5,2.1-5.9,2.1c-2.3,0-4.1-0.7-5.1-2.1C810.5,762.9,810.1,761.1,810.5,759z M831.8,719.7   c-0.2,1.2-0.5,2.9-1,5.2c-0.5,2.3-1,4.7-1.6,7.3c-0.6,2.6-1.3,5.3-2,7.9c-0.7,2.6-1.4,4.9-2.1,6.8c-0.2,0.2-0.6,0.3-1,0.5   c-0.4,0.2-0.9,0.3-1.4,0.4c-0.5,0.1-1,0.2-1.4,0.2c-0.5,0.1-0.9,0.1-1.3,0.1c-1.5,0-2.7-0.2-3.7-0.7c-0.9-0.5-1.4-1.4-1.4-2.7   c0-1.2,0.1-3,0.3-5.5c0.2-2.4,0.5-5.1,0.9-8c0.3-2.9,0.7-5.7,1.1-8.5c0.4-2.8,0.8-5.2,1.1-7.2c1.1-0.6,2.4-1,3.8-1.4   c1.4-0.3,2.7-0.5,4-0.5c2.1,0,3.7,0.5,4.7,1.5C831.8,716.1,832.2,717.6,831.8,719.7z" />
  <path fill="#f2763d"
    d="M442.1,216.7c-0.5,0-1.1-0.1-1.7-0.2l-72-17.5c-3.8-0.9-6.1-4.7-5.2-8.5s4.7-6.1,8.5-5.2l72,17.5  c3.8,0.9,6.1,4.7,5.2,8.5C448.1,214.5,445.3,216.7,442.1,216.7z" />
  <path fill="#f2763d"
    d="M532.6,132.3c-2.8,0-5.5-1.7-6.5-4.5l-21.9-57.1c-1.4-3.6,0.4-7.7,4-9c3.6-1.4,7.7,0.4,9,4l21.9,57.1  c1.4,3.6-0.4,7.7-4,9C534.3,132.2,533.4,132.3,532.6,132.3z" />
  <path fill="#f2763d"
    d="M476.2,172.1c-1.8,0-3.6-0.7-5-2.1L403,101.8c-2.7-2.7-2.7-7.2,0-9.9c2.7-2.7,7.2-2.7,9.9,0l68.3,68.3  c2.7,2.7,2.7,7.2,0,9.9C479.8,171.4,478,172.1,476.2,172.1z" />
  <ellipse cx="711.8" cy="1130.3" fill="#f2763d" fill-rule="evenodd" clip-rule="evenodd" rx="75.9"
    ry="68.3" transform="rotate(-43.498 711.773 1130.36)" />
  <path fill="#fff"
    d="M731,1128.4l-16.9,15.3c-0.9,0.8-2.1,1.3-3.4,1.3h-0.3c-1.3-0.1-2.6-0.7-3.5-1.7l-13.7-15.3  c-1.8-2.1-1.7-5.2,0.4-7.1s5.2-1.7,7.1,0.4l6.2,6.9l3.9-36.9c0.3-2.8,2.8-4.7,5.5-4.4s4.7,2.8,4.5,5.5l-3.7,35.1l7.2-6.5  c2-1.9,5.2-1.7,7.1,0.3C733.2,1123.4,733.1,1126.6,731,1128.4z" />
  <path fill="#fff"
    d="M738.5,1165.3h-59.9c-2.8,0-5-2.2-5-5s2.2-5,5-5h59.9c2.8,0,5,2.2,5,5S741.3,1165.3,738.5,1165.3z" />
</svg>
