 <svg id="Group_13252" data-name="Group 13252" xmlns="http://www.w3.org/2000/svg" width="53" height="30"
   class="mx-3" viewBox="0 0 49.678 22.496">
   <rect id="Rectangle_27439" data-name="Rectangle 27439" width="49.678" height="22.496" fill="#0e1740"
     opacity="0" />
   <path id="Icon_payment-cash-on-delivery" data-name="Icon payment-cash-on-delivery"
     d="M11.983,21a1.918,1.918,0,0,0-1.181.394,2.7,2.7,0,0,0-.843,1.159A4.243,4.243,0,0,0,9.64,24.2,1.8,1.8,0,0,0,9.981,25.4a1.364,1.364,0,0,0,1.087.394,4.708,4.708,0,0,0,1.681-.374v1.264a5.6,5.6,0,0,1-1.99.374,2.6,2.6,0,0,1-1.965-.727,2.843,2.843,0,0,1-.7-2.059,5.328,5.328,0,0,1,.517-2.345A3.883,3.883,0,0,1,9.993,20.3a3.6,3.6,0,0,1,1.99-.557,5.042,5.042,0,0,1,1.1.109,4.245,4.245,0,0,1,1.034.4l-.587,1.215a4.232,4.232,0,0,0-.871-.379A2.633,2.633,0,0,0,11.983,21Zm6.173,4.273H15.8l-.855,1.692H13.356l3.809-7.135h1.855l.731,7.135H18.275l-.119-1.692Zm-.074-1.264-.129-1.7q-.049-.636-.05-1.23V20.9a13.3,13.3,0,0,1-.542,1.234l-.935,1.871h1.656Zm7.242.855a1.949,1.949,0,0,1-.736,1.606,3.1,3.1,0,0,1-1.995.591,3.194,3.194,0,0,1-1.77-.438V25.288a3.749,3.749,0,0,0,1.781.525,1.571,1.571,0,0,0,.87-.207.645.645,0,0,0,.313-.566.936.936,0,0,0-.067-.367,1.019,1.019,0,0,0-.191-.294,5.11,5.11,0,0,0-.617-.5,3.28,3.28,0,0,1-.965-.953,1.961,1.961,0,0,1-.279-1.016,2.024,2.024,0,0,1,1.186-1.888,2.976,2.976,0,0,1,1.311-.274,4.105,4.105,0,0,1,1.974.481L25.6,21.367a3.437,3.437,0,0,0-1.433-.36,1.027,1.027,0,0,0-.677.219.714.714,0,0,0-.263.579.846.846,0,0,0,.164.518,2.994,2.994,0,0,0,.736.586,2.917,2.917,0,0,1,.9.858,2,2,0,0,1,.3,1.1Zm6.591,2.1H30.392l.666-3.067H28.716l-.666,3.067H26.533l1.537-7.106h1.522l-.6,2.785h2.343l.6-2.785H33.45l-1.537,7.106ZM43.677,22.4a5.9,5.9,0,0,1-.493,2.462,3.712,3.712,0,0,1-1.348,1.64,3.539,3.539,0,0,1-1.969.554,2.48,2.48,0,0,1-2.7-2.707,5.646,5.646,0,0,1,.492-2.369,3.862,3.862,0,0,1,1.357-1.66,3.512,3.512,0,0,1,2-.579,2.425,2.425,0,0,1,2.66,2.658ZM40.892,21a1.628,1.628,0,0,0-1.1.445A2.964,2.964,0,0,0,39,22.664a4.846,4.846,0,0,0-.286,1.687,1.557,1.557,0,0,0,.331,1.079,1.2,1.2,0,0,0,.933.364,1.647,1.647,0,0,0,1.1-.423,2.766,2.766,0,0,0,.774-1.2,5.085,5.085,0,0,0,.279-1.736,1.591,1.591,0,0,0-.323-1.067A1.138,1.138,0,0,0,40.892,21Zm9.555,5.964h-1.7l-1.77-5.376h-.03l-.02.155q-.159,1.05-.328,1.876l-.721,3.344H44.509l1.537-7.106h1.776l1.691,5.234h.02q.059-.369.194-1.055t.9-4.18h1.362Zm-38.223,5.3a5.472,5.472,0,0,1-.507,2.434,3.549,3.549,0,0,1-1.466,1.573,4.532,4.532,0,0,1-2.263.541H5.656l1.6-7.315H9.3a3.034,3.034,0,0,1,2.159.716,2.676,2.676,0,0,1,.763,2.051ZM8.06,35.531a2.344,2.344,0,0,0,1.334-.38,2.493,2.493,0,0,0,.889-1.118,4.2,4.2,0,0,0,.321-1.689,1.662,1.662,0,0,0-.375-1.173,1.4,1.4,0,0,0-1.078-.4H8.557L7.512,35.53H8.06Zm9.253,1.281H13.088l1.6-7.315h4.23l-.279,1.271H15.99l-.346,1.606H18.11l-.285,1.271H15.359l-.414,1.886h2.648l-.279,1.281Zm1.78,0,1.6-7.315h1.582l-1.324,6.034H23.6l-.28,1.281Zm5.751,0L26.459,29.5h1.578l-1.614,7.315H24.845Zm6.166-1.5A14.246,14.246,0,0,1,31.58,33.9l2.234-4.4h1.634L31.58,36.811H29.852L29.2,29.5h1.526l.264,4.4q.021.225.021.666-.01.516-.031.75h.036Zm8.246,1.5H35.031l1.6-7.315h4.23l-.279,1.271H37.933l-.346,1.606h2.467l-.285,1.271H37.3l-.414,1.886h2.648l-.279,1.281ZM43.229,34l-.616,2.807H41.036l1.6-7.315h1.857a2.833,2.833,0,0,1,1.841.51,1.832,1.832,0,0,1,.616,1.5,2.188,2.188,0,0,1-.429,1.358,2.512,2.512,0,0,1-1.236.843l1.35,3.108H44.915L43.845,34h-.615Zm.274-1.261h.4a1.718,1.718,0,0,0,1.055-.285,1.021,1.021,0,0,0,.377-.87.756.756,0,0,0-.246-.616,1.2,1.2,0,0,0-.773-.205h-.383L43.5,32.744Zm7.215-.285L52.653,29.5h1.769l-3.2,4.518-.616,2.8H49.043l.616-2.8L48.438,29.5h1.614l.667,2.962Z"
     transform="translate(-5.256 -17.359)" fill="#0e1740" />
 </svg>
