<svg xmlns="http://www.w3.org/2000/svg" width="210.943" height="173.74" viewBox="0 0 210.943 173.74">
  <g id="High_five-pana" data-name="High five-pana" transform="translate(-25.579 -62.52)">
    <g id="freepik--background-complete--inject-56" transform="translate(25.579 62.52)">
      <rect id="Rectangle_2145" data-name="Rectangle 2145" width="23.251" height="33.701" transform="translate(133.999 36.673)" fill="#e0e0e0"/>
      <rect id="Rectangle_2146" data-name="Rectangle 2146" width="23.251" height="33.701" transform="translate(132.835 36.673)" fill="#f5f5f5"/>
      <rect id="Rectangle_2147" data-name="Rectangle 2147" width="17.474" height="26.404" transform="translate(135.723 40.322)" fill="#fff"/>
      <path id="Path_5934" data-name="Path 5934" d="M335.709,175.691V168.3c0-4.636,0-11.248-.028-19.009l.056.056h-17.47l.065-.065v26.4l-.051-.046h-.111V149.12h17.595v.06c0,7.78-.023,14.373-.028,19.051v7.228A1.11,1.11,0,0,1,335.709,175.691Z" transform="translate(-182.516 -108.97)" fill="#e0e0e0"/>
      <path id="Path_5935" data-name="Path 5935" d="M358.717,141.62a4.082,4.082,0,0,1-.413.6c-.269.357-.654.848-1.09,1.391s-.848,1-1.15,1.335a4.435,4.435,0,0,1-.515.524,4.991,4.991,0,0,1,.464-.58l1.122-1.358,1.117-1.358A4.111,4.111,0,0,1,358.717,141.62Z" transform="translate(-202.566 -104.947)" fill="#e0e0e0"/>
      <path id="Path_5936" data-name="Path 5936" d="M356.2,206.25a21.791,21.791,0,0,0,3.051,3.811" transform="translate(-202.914 -139.613)" fill="#fff"/>
      <path id="Path_5937" data-name="Path 5937" d="M359.251,210.1a3.248,3.248,0,0,1-.533-.464,17.087,17.087,0,0,1-1.15-1.3,16.167,16.167,0,0,1-1.011-1.391,3.407,3.407,0,0,1-.357-.626,4.082,4.082,0,0,1,.431.575c.255.362.617.853,1.034,1.391s.825.988,1.117,1.317A4.636,4.636,0,0,1,359.251,210.1Z" transform="translate(-202.914 -139.65)" fill="#e0e0e0"/>
      <path id="Path_5938" data-name="Path 5938" d="M312.09,209.905l3.041-3.755" transform="translate(-179.255 -139.559)" fill="#fff"/>
      <path id="Path_5939" data-name="Path 5939" d="M315.131,206.15a23.182,23.182,0,0,1-1.47,1.915c-.844,1.039-1.549,1.855-1.572,1.855A22.713,22.713,0,0,1,313.56,208,24.032,24.032,0,0,1,315.131,206.15Z" transform="translate(-179.255 -139.559)" fill="#e0e0e0"/>
      <path id="Path_5940" data-name="Path 5940" d="M312.09,141.62a20.446,20.446,0,0,1,1.479,1.766,22.324,22.324,0,0,1,1.391,1.855,20.446,20.446,0,0,1-1.479-1.766A20.8,20.8,0,0,1,312.09,141.62Z" transform="translate(-179.255 -104.947)" fill="#e0e0e0"/>
      <rect id="Rectangle_2148" data-name="Rectangle 2148" width="5.851" height="16.612" transform="translate(141.903 45.681)" fill="#e0e0e0"/>
      <path id="Path_5941" data-name="Path 5941" d="M257.757,345a8.28,8.28,0,0,0-4.868,4.279,14.6,14.6,0,0,0-1.391,6.454c-.056,4.3,1.8,8.878,3.964,12.592,3.964-2.661,5.475-7.984,6.074-10.733.927-4.349,0-12.773-3.774-12.592" transform="translate(-146.754 -214.031)" fill="#f5f5f5"/>
      <path id="Path_5942" data-name="Path 5942" d="M235.487,397.726a7.061,7.061,0,0,0-1.419-6.954,9.361,9.361,0,0,0-6.584-3.014,3.941,3.941,0,0,0-3.185.969,3.018,3.018,0,0,0-.431,3.028,6.106,6.106,0,0,0,1.966,2.5c2.842,2.318,6.027,4.066,9.653,3.463" transform="translate(-131.814 -236.962)" fill="#f5f5f5"/>
      <path id="Path_5943" data-name="Path 5943" d="M244.882,413.217a13.958,13.958,0,0,0-.13-2.837,12.981,12.981,0,0,0-.7-3.023,28.924,28.924,0,0,0-1.423-3.51,14.094,14.094,0,0,0-4.414-5.258,10.349,10.349,0,0,0-1.855-1.006,2.318,2.318,0,0,0-.737-.213c-.037.079,1,.464,2.374,1.493a15.147,15.147,0,0,1,4.173,5.2,34.145,34.145,0,0,1,1.433,3.44,14.683,14.683,0,0,1,.788,2.921A22.814,22.814,0,0,0,244.882,413.217Z" transform="translate(-138.238 -242.124)" fill="#e0e0e0"/>
      <path id="Path_5944" data-name="Path 5944" d="M259.825,359a8.158,8.158,0,0,0-.325,1.391c-.176.927-.413,2.225-.691,3.853-.561,3.245-1.28,7.761-1.957,12.759s-1.154,9.537-1.433,12.833c-.139,1.646-.236,2.977-.287,3.9a7.548,7.548,0,0,0-.028,1.437,8.263,8.263,0,0,0,.213-1.419c.116-1.006.264-2.318.464-3.885.366-3.283.9-7.812,1.572-12.8s1.34-9.421,1.813-12.773c.223-1.567.4-2.874.542-3.871A8.309,8.309,0,0,0,259.825,359Z" transform="translate(-148.678 -221.543)" fill="#e0e0e0"/>
      <path id="Path_5945" data-name="Path 5945" d="M260.339,403.332a16.515,16.515,0,0,1,11.864-9.319c1.307-.241,2.921-.195,3.639.927s.088,2.615-.7,3.709a14.1,14.1,0,0,1-14.808,5.03" transform="translate(-151.493 -240.26)" fill="#f5f5f5"/>
      <path id="Path_5946" data-name="Path 5946" d="M267.878,401.6a2.318,2.318,0,0,0-.737.158c-.464.13-1.136.357-1.947.658a18.545,18.545,0,0,0-5.851,3.449,11.684,11.684,0,0,0-2.318,2.967,11.15,11.15,0,0,0-1.062,2.888,11.3,11.3,0,0,0-.26,2.049,2.244,2.244,0,0,0,0,.756c.1,0,.134-1.071.566-2.721a11.535,11.535,0,0,1,3.384-5.587,20.9,20.9,0,0,1,5.656-3.486A21.563,21.563,0,0,0,267.878,401.6Z" transform="translate(-148.994 -244.393)" fill="#e0e0e0"/>
      <path id="Path_5947" data-name="Path 5947" d="M416.437,169.691s-4.859-1.433-6.825,9.736a131,131,0,0,0-2.123,17.321s-.682,2.425-2.48,1.525-4.854-4.066-7.01-2.666c-2.239,1.451-2.207,4.437-.505,8.313s5.1,12.518,5.415,13.3.2,2.063-1.117,1.651-9.736-5.485-11.915-1.312,4.34,14.169,5.03,15.3.612,1.7.13,2.17-3.153-1.5-5.61-2.842-5.54-2.471-6.588.023.927,10.9,12.9,21.9l5.87,4.729,7.107-2.615c14.869-6.528,19.472-13.835,19.3-16.538s-3.468-2.652-6.227-2.188-5.925,1.479-6.231.872-.185-1.187.83-2.012,10.422-8.206,9.713-12.829-10.325-2.55-11.711-2.587-1.052-1.294-.524-1.919,6.57-7.706,9.435-10.826,3.862-5.93,2.216-8.03c-1.586-2.026-5.508,0-7.5.25s-1.855-2.244-1.855-2.244a128.641,128.641,0,0,0,3.6-17.08c1.748-11.211-3.431-11.405-3.431-11.405" transform="translate(-217.071 -119.971)" fill="#f5f5f5"/>
      <path id="Path_5948" data-name="Path 5948" d="M434.162,191.35a1.831,1.831,0,0,1-.023.236l-.1.691c-.093.617-.227,1.511-.394,2.652-.348,2.318-.872,5.638-1.535,9.736-1.326,8.229-3.245,19.579-5.42,32.111s-4.126,23.877-5.494,32.1c-.682,4.1-1.233,7.418-1.613,9.736-.19,1.141-.338,2.031-.464,2.647-.051.292-.088.519-.121.686s-.051.232-.051.232a1.534,1.534,0,0,1,.028-.236c.028-.158.056-.394.093-.691.093-.617.227-1.511.394-2.652.348-2.318.872-5.638,1.535-9.736,1.326-8.229,3.245-19.584,5.424-32.116s4.14-23.872,5.531-32.111c.677-4.1,1.229-7.418,1.613-9.736l.44-2.647.121-.686A2.087,2.087,0,0,1,434.162,191.35Z" transform="translate(-236.572 -131.621)" fill="#e0e0e0"/>
      <path id="Path_5949" data-name="Path 5949" d="M424.66,235.62a2.434,2.434,0,0,1,.334.431c.2.287.464.709.825,1.233.682,1.052,1.586,2.527,2.55,4.173l2.453,4.233.746,1.275a1.929,1.929,0,0,1,.255.464,2.343,2.343,0,0,1-.338-.427c-.2-.287-.464-.709-.816-1.238-.672-1.062-1.558-2.55-2.522-4.2l-2.48-4.214c-.3-.5-.552-.927-.756-1.275A1.989,1.989,0,0,1,424.66,235.62Z" transform="translate(-239.634 -155.366)" fill="#e0e0e0"/>
      <path id="Path_5950" data-name="Path 5950" d="M441.629,250.926c-.042-.06,2.921-2.054,6.616-4.46s6.713-4.3,6.755-4.247-2.925,2.059-6.616,4.46S441.667,250.977,441.629,250.926Z" transform="translate(-248.736 -158.904)" fill="#e0e0e0"/>
      <path id="Path_5951" data-name="Path 5951" d="M432.57,296.8a2.537,2.537,0,0,1,.524-.19l1.447-.44c1.219-.376,2.907-.895,4.743-1.539s3.487-1.27,4.678-1.739l1.391-.552a2.1,2.1,0,0,1,.533-.176,2.592,2.592,0,0,1-.491.264c-.325.158-.793.376-1.391.63-1.168.51-2.81,1.173-4.636,1.813s-3.542,1.141-4.775,1.47c-.621.162-1.122.287-1.474.366a2.319,2.319,0,0,1-.547.093Z" transform="translate(-243.877 -185.692)" fill="#e0e0e0"/>
      <path id="Path_5952" data-name="Path 5952" d="M412.17,282.6a2.118,2.118,0,0,1,.408.315c.25.213.612.529,1.048.927.881.793,2.082,1.9,3.4,3.125s2.5,2.355,3.347,3.18c.422.408.76.746.992.983a2.375,2.375,0,0,1,.343.385,1.818,1.818,0,0,1-.408-.311c-.255-.213-.612-.533-1.052-.927-.876-.788-2.082-1.892-3.4-3.125s-2.5-2.355-3.343-3.176c-.427-.413-.765-.746-1-.988a2,2,0,0,1-.338-.389Z" transform="translate(-232.935 -180.564)" fill="#e0e0e0"/>
      <path id="Path_5953" data-name="Path 5953" d="M399.55,317.94a3.055,3.055,0,0,1,.519.408l1.349,1.182c1.131,1.006,2.68,2.406,4.386,3.969s3.245,2.986,4.335,4.024l1.294,1.243a3.283,3.283,0,0,1,.464.464,3.709,3.709,0,0,1-.519-.408l-1.349-1.182c-1.131-1.006-2.68-2.411-4.386-3.969s-3.245-2.986-4.33-4.024L400,318.431A3.192,3.192,0,0,1,399.55,317.94Z" transform="translate(-226.166 -199.52)" fill="#e0e0e0"/>
      <path id="Path_5954" data-name="Path 5954" d="M425.68,334.222a4.022,4.022,0,0,1,.654-.255l1.817-.626c1.53-.529,3.644-1.266,5.958-2.142s4.386-1.72,5.879-2.341l1.776-.737a3.85,3.85,0,0,1,.663-.241,3.345,3.345,0,0,1-.621.334c-.408.2-1,.464-1.743.807-1.479.668-3.547,1.539-5.865,2.415s-4.442,1.6-5.99,2.063c-.774.241-1.391.427-1.855.547a3.535,3.535,0,0,1-.672.176Z" transform="translate(-240.181 -204.851)" fill="#e0e0e0"/>
      <path id="Path_5955" data-name="Path 5955" d="M61.863,299.262c10.705-6.111,14.182-18.944,14.836-30.706.111-1.966.515-4.006-.26-5.809s-2.837-3.176-4.664-2.513c-1.516.552-2.318,2.184-3.245,3.51a11.516,11.516,0,0,1-4.993,3.964,4.4,4.4,0,0,1-4.052,0c-1.6-1.09-1.59-3.44-1.391-5.383q.552-5.452,1.062-10.886a18.225,18.225,0,0,0-.056-5.832,6.068,6.068,0,0,0-3.422-4.432,3.681,3.681,0,0,0-4.761,2.04,18.164,18.164,0,0,0-.274,2.415,2.058,2.058,0,0,1-1.391,1.822,2.347,2.347,0,0,1-2.054-1.09,25.389,25.389,0,0,1-4.006-7.446,36,36,0,0,0-3.672-7.636,10.483,10.483,0,0,0-6.764-4.636c-2.773-.4-5.9,1.039-6.857,3.709s.385,5.61,1.924,7.993a43.822,43.822,0,0,0,8.29,9.435,3.8,3.8,0,0,1,1.391,1.766c.3,1.335-1.048,2.513-2.365,2.824a22.972,22.972,0,0,1-4.59.093c-1.53.042-3.245.556-3.945,1.943-.983,1.915.491,4.173,2,5.67a37.285,37.285,0,0,0,10.436,7.367,12.456,12.456,0,0,1,3.908,2.365,3.625,3.625,0,0,1,.779,4.233c-.821,1.307-2.657,1.586-4.131,1.168a26.5,26.5,0,0,1-4.122-2.021c-2.582-1.256-6.055-1.391-7.979.765a6.188,6.188,0,0,0-1.154,5.387,14.48,14.48,0,0,0,2.508,5.1,37.559,37.559,0,0,0,14.957,12.7c6.013,2.721,11.7,3.83,18.082,2.142" transform="translate(-25.579 -150.516)" fill="#f5f5f5"/>
      <path id="Path_5956" data-name="Path 5956" d="M65.15,309.526a86.235,86.235,0,0,0-1.711-16.338,175.8,175.8,0,0,0-5.207-19.421l-1.641-5.012c-.538-1.646-1.071-3.278-1.692-4.845a87.122,87.122,0,0,0-4.075-8.786c-1.433-2.731-2.888-5.271-4.27-7.636s-2.722-4.544-4.02-6.491a69.673,69.673,0,0,0-6.806-8.642c-.881-.955-1.586-1.674-2.072-2.156l-.556-.542a1.633,1.633,0,0,0-.2-.176,1.794,1.794,0,0,0,.172.2l.533.57c.464.5,1.159,1.233,2.021,2.2a73.255,73.255,0,0,1,6.7,8.707c1.284,1.933,2.6,4.117,3.973,6.491s2.819,4.914,4.238,7.641a89.136,89.136,0,0,1,4.057,8.739c.612,1.558,1.141,3.176,1.674,4.826s1.076,3.32,1.627,5.016a180.716,180.716,0,0,1,5.22,19.366,87.719,87.719,0,0,1,1.78,16.273" transform="translate(-29.506 -152.072)" fill="#e0e0e0"/>
      <path id="Path_5957" data-name="Path 5957" d="M80.17,279.215a3.43,3.43,0,0,0,.269-.811c.153-.529.343-1.3.57-2.258.464-1.915.988-4.576,1.567-7.515s1.15-5.587,1.632-7.488c.236-.927.436-1.72.584-2.249a4.132,4.132,0,0,0,.185-.835,3.639,3.639,0,0,0-.32.793c-.185.519-.427,1.28-.7,2.225-.547,1.887-1.159,4.539-1.739,7.483l-1.465,7.553c-.181.9-.334,1.669-.464,2.281A4.4,4.4,0,0,0,80.17,279.215Z" transform="translate(-54.86 -167.402)" fill="#e0e0e0"/>
      <path id="Path_5958" data-name="Path 5958" d="M27.11,288.655a5.842,5.842,0,0,0,.988.209c.64.116,1.562.278,2.694.519,2.272.464,5.383,1.2,8.781,2.165s6.435,1.989,8.614,2.782c1.09.389,1.966.728,2.569.96a5.171,5.171,0,0,0,.955.329,5.129,5.129,0,0,0-.9-.464c-.589-.274-1.451-.649-2.536-1.071-2.161-.862-5.193-1.915-8.6-2.893a87.953,87.953,0,0,0-8.832-2.072c-1.141-.2-2.072-.329-2.717-.4A4.99,4.99,0,0,0,27.11,288.655Z" transform="translate(-26.4 -183.81)" fill="#e0e0e0"/>
      <path id="Path_5959" data-name="Path 5959" d="M98.19,330.187a1.191,1.191,0,0,0,.2-.292l.515-.867c.464-.751,1.048-1.854,1.78-3.245,1.47-2.754,3.384-6.625,5.434-10.928s3.922-8.188,5.336-10.969l1.678-3.292.464-.9a1.535,1.535,0,0,0,.134-.325,1.393,1.393,0,0,0-.2.287l-.51.867c-.44.756-1.048,1.855-1.785,3.245-1.47,2.759-3.38,6.63-5.434,10.932s-3.922,8.183-5.332,10.969l-1.683,3.292-.464.9a1.271,1.271,0,0,0-.134.325Z" transform="translate(-64.525 -189.559)" fill="#e0e0e0"/>
      <path id="Path_5960" data-name="Path 5960" d="M28.57,336.14a1.251,1.251,0,0,0,.32.167l.927.413,3.454,1.484c2.921,1.247,6.954,3.023,11.359,4.989s8.457,3.709,11.405,4.9c1.47.6,2.666,1.066,3.5,1.391l.96.352a1.559,1.559,0,0,0,.343.1,1.154,1.154,0,0,0-.315-.167l-.927-.413-3.473-1.5c-2.921-1.252-6.954-3.027-11.359-4.993s-8.461-3.709-11.405-4.9c-1.47-.593-2.666-1.066-3.5-1.391l-.96-.348A1.452,1.452,0,0,0,28.57,336.14Z" transform="translate(-27.183 -209.282)" fill="#e0e0e0"/>
      <path id="Path_5961" data-name="Path 5961" d="M108.963,81.7v38.268H54l-1.984-38Z" transform="translate(-39.761 -72.808)" fill="#e0e0e0"/>
      <rect id="Rectangle_2149" data-name="Rectangle 2149" width="37.916" height="54.959" transform="translate(12.259 47.082) rotate(-90)" fill="#fff"/>
      <path id="Path_5962" data-name="Path 5962" d="M106.943,120.16H51.46V81.72h55.483Zm-54.959-.524h54.435v-37.4H51.984Z" transform="translate(-39.461 -72.818)" fill="#e0e0e0"/>
      <rect id="Rectangle_2150" data-name="Rectangle 2150" width="43.053" height="28.495" transform="translate(18.212 13.872)" fill="#fff"/>
      <path id="Path_5963" data-name="Path 5963" d="M107.719,92.258h-3.167l-8.874.032-30.994.06.125-.125V120.72h0l-.139-.134,43.057.028-.111.107c.028-8.67.046-15.763.06-20.729,0-2.476,0-4.409.028-5.735v-.042c0,1.317,0,3.245.028,5.707,0,4.965.032,12.1.056,20.8v.111h-.107l-43.057.028H64.49v-.139h0V92.1h.121l31.063.065,8.846.032h2.916Z" transform="translate(-46.45 -78.386)" fill="#e0e0e0"/>
      <path id="Path_5964" data-name="Path 5964" d="M52,82.05a4.812,4.812,0,0,1,.927.612c.566.408,1.331.983,2.156,1.646s1.553,1.284,2.068,1.753a4.4,4.4,0,0,1,.784.807,33.848,33.848,0,0,1-3.023-2.351A33.635,33.635,0,0,1,52,82.05Z" transform="translate(-39.75 -72.995)" fill="#e0e0e0"/>
      <path id="Path_5965" data-name="Path 5965" d="M163.683,82.28a26.493,26.493,0,0,1-2.893,2.462,26.373,26.373,0,0,1-3.06,2.249,27.175,27.175,0,0,1,2.907-2.462A26.586,26.586,0,0,1,163.683,82.28Z" transform="translate(-96.461 -73.119)" fill="#e0e0e0"/>
      <path id="Path_5966" data-name="Path 5966" d="M163.385,158.33l-6.125-4.97" transform="translate(-96.209 -111.244)" fill="#fff"/>
      <path id="Path_5967" data-name="Path 5967" d="M157.258,153.36a30.038,30.038,0,0,1,3.148,2.378,28.343,28.343,0,0,1,2.977,2.592,29.273,29.273,0,0,1-3.148-2.378A25.653,25.653,0,0,1,157.258,153.36Z" transform="translate(-96.207 -111.244)" fill="#e0e0e0"/>
      <path id="Path_5968" data-name="Path 5968" d="M52,158.674a26.277,26.277,0,0,1,2.865-2.439,26.594,26.594,0,0,1,3.028-2.225,25.929,25.929,0,0,1-2.861,2.439A26.6,26.6,0,0,1,52,158.674Z" transform="translate(-39.75 -111.593)" fill="#e0e0e0"/>
      <rect id="Rectangle_2151" data-name="Rectangle 2151" width="9.541" height="27.09" transform="translate(26.956 32.296) rotate(-90)" fill="#e0e0e0"/>
      <rect id="Rectangle_2152" data-name="Rectangle 2152" width="29.385" height="42.594" transform="translate(166.722 0)" fill="#e0e0e0"/>
      <rect id="Rectangle_2153" data-name="Rectangle 2153" width="29.385" height="42.594" transform="translate(165.252 0)" fill="#f5f5f5"/>
      <rect id="Rectangle_2154" data-name="Rectangle 2154" width="22.083" height="33.367" transform="translate(168.901 4.613)" fill="#fff"/>
      <path id="Path_5969" data-name="Path 5969" d="M411.919,105.746V96.418c0-5.883-.023-14.22-.037-24.03l.074.074H389.832l.083-.079v33.381l-.065-.065,16.074.037h.042l-16.116.032h-.06V72.3h22.254v.074c0,9.834-.023,18.179-.032,24.076,0,2.935,0,5.262-.023,6.857v2.276A.367.367,0,0,0,411.919,105.746Z" transform="translate(-220.931 -67.766)" fill="#e0e0e0"/>
      <path id="Path_5970" data-name="Path 5970" d="M440.941,62.52a4.685,4.685,0,0,1-.524.76c-.343.464-.825,1.08-1.391,1.753s-1.071,1.266-1.456,1.688a5.171,5.171,0,0,1-.631.658,5.259,5.259,0,0,1,.561-.733l1.414-1.715c.533-.654,1.02-1.243,1.414-1.72a5.428,5.428,0,0,1,.612-.691Z" transform="translate(-246.221 -62.52)" fill="#e0e0e0"/>
      <path id="Path_5971" data-name="Path 5971" d="M437.76,144.21a27.537,27.537,0,0,0,3.853,4.817" transform="translate(-246.661 -106.336)" fill="#fff"/>
      <path id="Path_5972" data-name="Path 5972" d="M441.6,149.027a4.423,4.423,0,0,1-.672-.612,20.241,20.241,0,0,1-1.456-1.637,21.864,21.864,0,0,1-1.275-1.78,4.492,4.492,0,0,1-.464-.788,5.8,5.8,0,0,1,.542.728c.325.464.779,1.076,1.307,1.739s1.039,1.247,1.414,1.66a6.362,6.362,0,0,1,.6.691Z" transform="translate(-246.645 -106.336)" fill="#e0e0e0"/>
      <path id="Path_5973" data-name="Path 5973" d="M382,148.828l3.848-4.748" transform="translate(-216.753 -106.266)" fill="#fff"/>
      <path id="Path_5974" data-name="Path 5974" d="M385.853,144.08A28.489,28.489,0,0,1,384,146.5a29.334,29.334,0,0,1-1.989,2.318,54.352,54.352,0,0,1,3.843-4.743Z" transform="translate(-216.758 -106.266)" fill="#e0e0e0"/>
      <path id="Path_5975" data-name="Path 5975" d="M382,62.52a26.991,26.991,0,0,1,1.854,2.235,27.263,27.263,0,0,1,1.743,2.318,25.97,25.97,0,0,1-1.855-2.235A27.277,27.277,0,0,1,382,62.52Z" transform="translate(-216.753 -62.52)" fill="#e0e0e0"/>
      <rect id="Rectangle_2155" data-name="Rectangle 2155" width="7.395" height="20.993" transform="translate(176.713 11.387)" fill="#e0e0e0"/>
    </g>
    <g id="freepik--Floor--inject-56" transform="translate(26.15 236.019)">
      <path id="Path_5976" data-name="Path 5976" d="M228.544,436.861c0,.07-45.167.121-100.863.121s-100.872-.032-100.872-.121,45.153-.121,100.872-.121S228.544,436.814,228.544,436.861Z" transform="translate(-26.81 -436.74)" fill="#263238"/>
    </g>
    <g id="freepik--character-2--inject-56" transform="translate(133.563 96.242)">
      <path id="Path_5977" data-name="Path 5977" d="M329.655,264a8.007,8.007,0,0,1-2.388,7.835c-1.414,1.252-3.245,1.975-4.544,3.352a7.052,7.052,0,0,0-1.414,6.806,9,9,0,0,0,4.743,5.258,10.529,10.529,0,0,0,9.551-.325c3.584-2.026,5.67-6.092,6.2-10.177s-.3-8.22-1.391-12.193" transform="translate(-292.004 -204.31)" fill="#263238"/>
      <path id="Path_5978" data-name="Path 5978" d="M437.19,410.2c3.709-.607,7.186.524,10.858,1.335a6.491,6.491,0,0,0,3.009.162,4.319,4.319,0,0,0,2.967-3.579,5.86,5.86,0,0,0-.927-4.061,3.9,3.9,0,0,0-1.27-1.266,4.418,4.418,0,0,0-1.776-.464,12.615,12.615,0,0,0-6.537,1.233,19.278,19.278,0,0,0-5.424,3.932c-.779.779-.547,1.674-.89,2.721" transform="translate(-354.339 -278.481)" fill="#263238"/>
      <path id="Path_5979" data-name="Path 5979" d="M274.54,270.674a28.746,28.746,0,0,1,.213-10.663,14,14,0,0,1,1.855-4.845,3.106,3.106,0,0,1,1.358-1.275,2.364,2.364,0,0,1,2.415.57,4.038,4.038,0,0,1,1.113,3.125,9.907,9.907,0,0,1-.825,3.3,38.6,38.6,0,0,1-6.143,9.783" transform="translate(-266.885 -198.823)" fill="#263238"/>
      <path id="Path_5980" data-name="Path 5980" d="M416.247,319.14c.839.6,19.472,40.734,19.472,40.734h0a7.914,7.914,0,0,0-4.752-.464l-1.011.269A16.913,16.913,0,0,0,424.88,362l-5.318,3.6h0a1.521,1.521,0,0,1-.756-1.173v-.153L404.36,339.475Z" transform="translate(-336.73 -233.886)" fill="#00ae9f"/>
      <path id="Path_5981" data-name="Path 5981" d="M268.8,181.32l4.97,28.249c1.6,3.8,20.251,26.835,20.251,26.835l-6.166,19.815-24.5-33.5a12.8,12.8,0,0,1-3.449-8.985l.955-30.182Z" transform="translate(-259.249 -159.963)" fill="#ffbe9d"/>
      <path id="Path_5982" data-name="Path 5982" d="M327.62,290.58l12.792.969,11.155,1.729s19.57,5.142,19.57,7.284c0,.714-5.341,17.725-8.345,27.915a70.852,70.852,0,0,0-1.8,7.529l10.144,22.458H323v-20.59s-3.245-27.043-2.675-30.739S327.62,290.58,327.62,290.58Z" transform="translate(-291.619 -218.567)" fill="#00ae9f"/>
      <path id="Path_5983" data-name="Path 5983" d="M266,145.7a56.625,56.625,0,0,1,.881-8.577c.07-.4.236-.89.64-.927.5-.065.756.58.821,1.08a30.224,30.224,0,0,1-.422,10.251" transform="translate(-262.518 -135.757)" fill="#eb996e"/>
      <path id="Path_5984" data-name="Path 5984" d="M276.519,260.2c5.489-4.905,5.675-13.4,5.207-20.168a2.267,2.267,0,0,1,.213-1.451c.524-.746,1.8-.464,2.318.287a4.348,4.348,0,0,1,.436,2.647c.283-.77,1.488-.765,2.054-.172a3.688,3.688,0,0,1,.728,2.318l.181,2.263,16.037,15.3s.44-1.391,1.618-.589a6.91,6.91,0,0,1,1.938,2.494l-11.3,24.66-20.97-25.5A8.517,8.517,0,0,1,276.519,260.2Z" transform="translate(-267.335 -190.443)" fill="#00ae9f"/>
      <path id="Path_5985" data-name="Path 5985" d="M320.389,322.53a21.262,21.262,0,0,0-3.681,7.172,13.074,13.074,0,0,0,.236,7.984,11.071,11.071,0,0,0,8.5,6.852" transform="translate(-289.442 -235.704)" fill="#00ae9f"/>
      <path id="Path_5986" data-name="Path 5986" d="M436.487,412.028l-.607,8.183h11.883l2.782-14.488h0a14.966,14.966,0,0,0-10.047,3.148Z" transform="translate(-353.637 -280.314)" fill="#ffbe9d"/>
      <path id="Path_5987" data-name="Path 5987" d="M290.35,261.771a3.983,3.983,0,0,1,.26-.654c.185-.408.436-1.011.719-1.762s.584-1.66.867-2.68a32.048,32.048,0,0,0,.7-3.38,31.442,31.442,0,0,0,.292-3.436c0-1.062,0-2.017-.065-2.819s-.125-1.447-.185-1.892a4.468,4.468,0,0,1-.065-.7,3.517,3.517,0,0,1,.158.686,18.716,18.716,0,0,1,.264,1.892,25.9,25.9,0,0,1,.116,2.837,26.835,26.835,0,0,1-1,6.866,25.45,25.45,0,0,1-.927,2.684c-.306.751-.58,1.345-.793,1.743A4.636,4.636,0,0,1,290.35,261.771Z" transform="translate(-275.579 -193.824)" fill="#263238"/>
      <path id="Path_5988" data-name="Path 5988" d="M297.88,262.822a11.466,11.466,0,0,1,.519-1.168,17.3,17.3,0,0,0,1.391-5.939,11.393,11.393,0,0,1,.07-1.275,4.8,4.8,0,0,1,.1,1.28,14.122,14.122,0,0,1-1.391,6A4.591,4.591,0,0,1,297.88,262.822Z" transform="translate(-279.618 -199.183)" fill="#263238"/>
      <path id="Path_5989" data-name="Path 5989" d="M337.368,293.309c-.037-.023.158-.325.269-.872a4.6,4.6,0,0,0-.121-2.147,16.093,16.093,0,0,0-.8-2.049,3.505,3.505,0,0,1-.325-.872,4.171,4.171,0,0,1,.464.8,10.623,10.623,0,0,1,.886,2.059,4.205,4.205,0,0,1,.051,2.253A1.655,1.655,0,0,1,337.368,293.309Z" transform="translate(-300.273 -216.845)" fill="#263238"/>
      <path id="Path_5990" data-name="Path 5990" d="M323.6,348.318a.954.954,0,0,1-.2-.116l-.547-.362c-.464-.32-1.154-.788-1.961-1.423a16.808,16.808,0,0,1-2.6-2.49,9.976,9.976,0,0,1-2.012-3.918,12.318,12.318,0,0,1-.269-4.4,17.39,17.39,0,0,1,.793-3.51,22.936,22.936,0,0,1,.886-2.258c.121-.26.213-.464.283-.593a1.028,1.028,0,0,1,.116-.2,7.878,7.878,0,0,1-.311.835c-.209.529-.51,1.3-.811,2.272a18.411,18.411,0,0,0-.733,3.482,12.4,12.4,0,0,0,.278,4.321,9.894,9.894,0,0,0,1.952,3.839A17.62,17.62,0,0,0,321,346.282c.788.649,1.451,1.136,1.91,1.484l.519.4C323.548,348.257,323.608,348.308,323.6,348.318Z" transform="translate(-289.295 -239.196)" fill="#263238"/>
      <path id="Path_5991" data-name="Path 5991" d="M370.592,368.78a.794.794,0,0,1-.2.074c-.139.037-.338.107-.6.158a12.24,12.24,0,0,1-2.272.274,12.764,12.764,0,0,1-12.087-7.645,12,12,0,0,1-.728-2.17c-.065-.264-.088-.464-.116-.612a.967.967,0,0,1-.023-.218,6.324,6.324,0,0,1,.232.8,12.982,12.982,0,0,0,12.717,9.671,13.988,13.988,0,0,0,2.258-.195A7.93,7.93,0,0,1,370.592,368.78Z" transform="translate(-310.019 -255.073)" fill="#263238"/>
      <path id="Path_5992" data-name="Path 5992" d="M405.045,386.827c-.065,0,.547-2.582,1.391-5.726s1.539-5.679,1.6-5.661-.547,2.578-1.368,5.721S405.109,386.827,405.045,386.827Z" transform="translate(-337.095 -264.083)" fill="#263238"/>
      <path id="Path_5993" data-name="Path 5993" d="M409.6,372.322c-.056.032-1.919-3.014-4.173-6.806s-4.015-6.894-3.955-6.927,1.919,3.009,4.173,6.8S409.674,372.285,409.6,372.322Z" transform="translate(-335.179 -255.045)" fill="#263238"/>
      <path id="Path_5994" data-name="Path 5994" d="M445.96,404.382c0,.046-.677.1-1.734.371a13.681,13.681,0,0,0-1.813.6,15.1,15.1,0,0,0-2.077,1.076,14.666,14.666,0,0,0-1.855,1.414,13.614,13.614,0,0,0-1.321,1.391c-.7.839-1.039,1.428-1.08,1.391a2.064,2.064,0,0,1,.218-.427,8.617,8.617,0,0,1,.728-1.085,12.414,12.414,0,0,1,1.3-1.437,13.414,13.414,0,0,1,1.882-1.456,13.663,13.663,0,0,1,2.123-1.076,11.79,11.79,0,0,1,1.855-.561,8.4,8.4,0,0,1,1.289-.195A1.682,1.682,0,0,1,445.96,404.382Z" transform="translate(-353.744 -279.599)" fill="#263238"/>
      <path id="Path_5995" data-name="Path 5995" d="M449.256,398.24c0,.051-.746-.042-1.938.06a12.39,12.39,0,0,0-8.123,4.071c-.793.89-1.164,1.539-1.205,1.516a2.124,2.124,0,0,1,.246-.464,4.479,4.479,0,0,1,.334-.515,8.141,8.141,0,0,1,.5-.649,11.267,11.267,0,0,1,1.511-1.493,12.984,12.984,0,0,1,2.188-1.419,12.779,12.779,0,0,1,2.439-.9,11.194,11.194,0,0,1,2.1-.32,8.084,8.084,0,0,1,.811,0,5.5,5.5,0,0,1,.617.037,2.074,2.074,0,0,1,.519.074Z" transform="translate(-354.768 -276.247)" fill="#263238"/>
      <g id="Group_8028" data-name="Group 8028" transform="translate(44.542 104.555)" opacity="0.3">
        <path id="Path_5996" data-name="Path 5996" d="M355.058,360.77c-1.09,2.068-.181,4.59.816,6.709a12.205,12.205,0,0,0,3.046,4.451,6.491,6.491,0,0,0,9.435-1.317,14.646,14.646,0,0,1-13.519-9.565" transform="translate(-354.563 -360.77)" fill="#00ae9f"/>
      </g>
      <g id="Group_8029" data-name="Group 8029" transform="translate(65.931 103.544)" opacity="0.3">
        <path id="Path_5997" data-name="Path 5997" d="M401.087,358.59c-.835,1.989-.2,4.71.668,6.681s1.8,4.173,1.1,6.217a2.615,2.615,0,0,0-.274,1.168c.046.4.464.784.839.6a.927.927,0,0,0,.376-.575q.988-2.976,1.98-5.948" transform="translate(-400.695 -358.59)" fill="#00ae9f"/>
      </g>
      <path id="Path_5998" data-name="Path 5998" d="M306.94,293.582a55.331,55.331,0,0,1,1.173-7.362,27.441,27.441,0,0,1-.464,3.709A28.307,28.307,0,0,1,306.94,293.582Z" transform="translate(-284.477 -216.229)" fill="#fafafa"/>
      <path id="Path_5999" data-name="Path 5999" d="M291.79,294.516c-.06.037-.858-1.076-1.961-2.355s-2.077-2.239-2.031-2.29A11.443,11.443,0,0,1,290.014,292,11.873,11.873,0,0,1,291.79,294.516Z" transform="translate(-274.209 -218.186)" fill="#fafafa"/>
      <path id="Path_6000" data-name="Path 6000" d="M300.438,274.127a4,4,0,0,1-.524.835c-.352.5-.867,1.159-1.465,1.854s-1.173,1.321-1.6,1.748a3.75,3.75,0,0,1-.737.649c-.051-.046.964-1.145,2.156-2.555A31.97,31.97,0,0,1,300.438,274.127Z" transform="translate(-278.666 -209.741)" fill="#fafafa"/>
      <path id="Path_6001" data-name="Path 6001" d="M299.762,259.057c-.07.028-.334-.561-.844-1.15s-1.057-.927-1.02-1a2.262,2.262,0,0,1,1.2.839A2.318,2.318,0,0,1,299.762,259.057Z" transform="translate(-279.626 -200.508)" fill="#fafafa"/>
      <path id="Path_6002" data-name="Path 6002" d="M289.968,269.3a3.329,3.329,0,0,1-1.205.311,3.2,3.2,0,0,1-1.242.074,6.491,6.491,0,0,1,2.448-.385Z" transform="translate(-274.061 -207.148)" fill="#fafafa"/>
      <path id="Path_6003" data-name="Path 6003" d="M314.759,275.572a12.664,12.664,0,0,0-.153-2.156,12.31,12.31,0,0,0-.756-2.026,3.64,3.64,0,0,1,.987,1.975A3.709,3.709,0,0,1,314.759,275.572Z" transform="translate(-288.184 -208.274)" fill="#fafafa"/>
      <path id="Path_6004" data-name="Path 6004" d="M324.211,289.709a10.858,10.858,0,0,0-3.361-3.389A5.86,5.86,0,0,1,324.211,289.709Z" transform="translate(-291.938 -216.282)" fill="#fafafa"/>
      <path id="Path_6005" data-name="Path 6005" d="M303.451,316.391a5.563,5.563,0,0,1-4.251-.144c.023-.07.927.223,2.119.255S303.433,316.322,303.451,316.391Z" transform="translate(-280.326 -232.329)" fill="#fafafa"/>
      <path id="Path_6006" data-name="Path 6006" d="M317.621,315.634c-.065-.028.3-1.094.6-2.448s.436-2.476.505-2.467a7.822,7.822,0,0,1-.269,2.517A7.909,7.909,0,0,1,317.621,315.634Z" transform="translate(-290.202 -229.37)" fill="#fafafa"/>
      <path id="Path_6007" data-name="Path 6007" d="M333.371,317.177a16.507,16.507,0,0,1-2.026-2.04,17.32,17.32,0,0,1-1.855-2.207,16.919,16.919,0,0,1,2.021,2.045A17.91,17.91,0,0,1,333.371,317.177Z" transform="translate(-296.572 -230.555)" fill="#fafafa"/>
      <path id="Path_6008" data-name="Path 6008" d="M343.987,342.049a8.859,8.859,0,0,1-1.511-1.391,9.057,9.057,0,0,1-1.335-1.558,8.86,8.86,0,0,1,1.511,1.391A8.4,8.4,0,0,1,343.987,342.049Z" transform="translate(-302.821 -244.592)" fill="#fafafa"/>
      <path id="Path_6009" data-name="Path 6009" d="M325.146,347.686a6.732,6.732,0,0,1-1.855,1.391,6.56,6.56,0,0,1-2.142.927c0-.065.927-.464,2.021-1.117S325.1,347.63,325.146,347.686Z" transform="translate(-292.099 -249.195)" fill="#fafafa"/>
      <path id="Path_6010" data-name="Path 6010" d="M337.817,363.51c-.07,0,.209-1.233.348-2.759s.1-2.782.167-2.782a8.907,8.907,0,0,1,.074,2.782A8.776,8.776,0,0,1,337.817,363.51Z" transform="translate(-301.033 -254.713)" fill="#fafafa"/>
      <path id="Path_6011" data-name="Path 6011" d="M364.107,347.236a7.8,7.8,0,0,1-2.008-1.766,7.6,7.6,0,0,1-1.479-2.221c.06-.042.7.964,1.66,2.063S364.153,347.175,364.107,347.236Z" transform="translate(-313.27 -246.816)" fill="#fafafa"/>
      <path id="Path_6012" data-name="Path 6012" d="M379.206,356.087c-.056-.042.649-1.006,1.437-2.244s1.368-2.276,1.428-2.244a9.944,9.944,0,0,1-1.229,2.374A9.672,9.672,0,0,1,379.206,356.087Z" transform="translate(-323.237 -251.296)" fill="#fafafa"/>
      <path id="Path_6013" data-name="Path 6013" d="M372.226,336.752a24.265,24.265,0,0,1-4.636-1.252,12.761,12.761,0,0,1,2.355.51,11.869,11.869,0,0,1,2.281.742Z" transform="translate(-317.008 -242.661)" fill="#fafafa"/>
      <path id="Path_6014" data-name="Path 6014" d="M369.449,373.751a9.828,9.828,0,0,1,0-2.2,10.386,10.386,0,0,1,.25-2.184,9.68,9.68,0,0,1,0,2.2,10.2,10.2,0,0,1-.25,2.184Z" transform="translate(-317.972 -260.828)" fill="#fafafa"/>
      <path id="Path_6015" data-name="Path 6015" d="M376.5,387.356a18.629,18.629,0,0,0,.584-2.286,17.944,17.944,0,0,0,.037-2.36,5.564,5.564,0,0,1-.621,4.636Z" transform="translate(-321.787 -267.983)" fill="#fafafa"/>
      <path id="Path_6016" data-name="Path 6016" d="M358.321,384.3a7.154,7.154,0,0,1,.89-4.636c.065.028-.362,1.006-.6,2.29S358.391,384.292,358.321,384.3Z" transform="translate(-311.995 -266.347)" fill="#fafafa"/>
      <path id="Path_6017" data-name="Path 6017" d="M336.906,392.752a25.961,25.961,0,0,1-2.179-1.692,26.926,26.926,0,0,1-2.147-1.729,11.255,11.255,0,0,1,2.318,1.539A11.781,11.781,0,0,1,336.906,392.752Z" transform="translate(-298.23 -271.534)" fill="#fafafa"/>
      <path id="Path_6018" data-name="Path 6018" d="M346.644,377.09a40.035,40.035,0,0,1-5.564,2.944,20.82,20.82,0,0,1,2.745-1.595A20.252,20.252,0,0,1,346.644,377.09Z" transform="translate(-302.789 -264.969)" fill="#fafafa"/>
      <path id="Path_6019" data-name="Path 6019" d="M360.7,404.187a2.1,2.1,0,0,1-.3.074c-.2.037-.491.111-.872.162a18.6,18.6,0,0,1-3.245.209,20.031,20.031,0,0,1-17.456-10.9,18.343,18.343,0,0,1-1.243-3.018c-.125-.366-.185-.658-.241-.853a1.464,1.464,0,0,1-.06-.306,1.693,1.693,0,0,1,.107.292c.07.19.144.464.283.839a21,21,0,0,0,4.034,6.913,20.363,20.363,0,0,0,14.581,6.866,21.088,21.088,0,0,0,3.245-.13c.385-.037.677-.1.876-.116A1.307,1.307,0,0,1,360.7,404.187Z" transform="translate(-300.751 -271.652)" fill="#263238"/>
      <path id="Path_6020" data-name="Path 6020" d="M357.817,411.327a3.6,3.6,0,0,1,.218-2.193,3.565,3.565,0,0,1,1.28-1.794,11.407,11.407,0,0,0-1.052,1.882A11.758,11.758,0,0,0,357.817,411.327Z" transform="translate(-311.723 -281.194)" fill="#fafafa"/>
      <path id="Path_6021" data-name="Path 6021" d="M347.406,412.5a8.1,8.1,0,0,0-1.205,1.15,8.473,8.473,0,0,0-.76,1.479,2.842,2.842,0,0,1,1.966-2.629Z" transform="translate(-305.127 -283.961)" fill="#fafafa"/>
      <path id="Path_6022" data-name="Path 6022" d="M377.039,428.658a4.747,4.747,0,0,1-3.709-2.318A8.346,8.346,0,0,0,377.039,428.658Z" transform="translate(-320.087 -291.385)" fill="#fafafa"/>
      <path id="Path_6023" data-name="Path 6023" d="M383.338,403.64a3.654,3.654,0,0,1-2.518,2.967,9.9,9.9,0,0,0,1.5-1.275,9.583,9.583,0,0,0,1.015-1.692Z" transform="translate(-324.104 -279.209)" fill="#fafafa"/>
      <path id="Path_6024" data-name="Path 6024" d="M400.229,419.811c-.056-.046.556-.821,1.122-1.887s.867-2.008.927-1.984a7.13,7.13,0,0,1-2.059,3.871Z" transform="translate(-334.51 -285.806)" fill="#fafafa"/>
      <path id="Path_6025" data-name="Path 6025" d="M415.163,427c.028.07-.816.4-1.664,1.1s-1.358,1.451-1.419,1.391a3.76,3.76,0,0,1,1.266-1.6A3.709,3.709,0,0,1,415.163,427Z" transform="translate(-340.871 -291.739)" fill="#fafafa"/>
      <path id="Path_6026" data-name="Path 6026" d="M401.081,397.038c-.074.023-.464-1.331-1.331-2.833s-1.794-2.559-1.734-2.606a2.893,2.893,0,0,1,.663.649,11.512,11.512,0,0,1,2.188,3.885,3.069,3.069,0,0,1,.213.9Z" transform="translate(-333.327 -272.751)" fill="#fafafa"/>
      <path id="Path_6027" data-name="Path 6027" d="M402.241,373.56a21.528,21.528,0,0,1-4.451,1.025A21.718,21.718,0,0,1,402.241,373.56Z" transform="translate(-333.206 -263.075)" fill="#fafafa"/>
      <path id="Path_6028" data-name="Path 6028" d="M395.817,360.718a10.2,10.2,0,0,1-1.419-1.632,10.063,10.063,0,0,1-1.229-1.776,9.314,9.314,0,0,1,1.419,1.627,9.436,9.436,0,0,1,1.229,1.78Z" transform="translate(-330.728 -254.359)" fill="#fafafa"/>
      <path id="Path_6029" data-name="Path 6029" d="M414.98,358.129a10.8,10.8,0,0,1-4.34-1.029,18.907,18.907,0,0,1,2.174.505A18.341,18.341,0,0,1,414.98,358.129Z" transform="translate(-340.099 -254.247)" fill="#fafafa"/>
      <path id="Path_6030" data-name="Path 6030" d="M435,354.582a17.964,17.964,0,0,1,.709-1.929,16.415,16.415,0,0,1,.709-1.933,6.06,6.06,0,0,1-.464,2.017A5.906,5.906,0,0,1,435,354.582Z" transform="translate(-353.165 -250.824)" fill="#fafafa"/>
      <path id="Path_6031" data-name="Path 6031" d="M427.289,376.824a6.955,6.955,0,0,1-3.709-2.2c.046-.056.779.584,1.794,1.182S427.312,376.754,427.289,376.824Z" transform="translate(-347.039 -263.645)" fill="#fafafa"/>
      <path id="Path_6032" data-name="Path 6032" d="M441.3,372.448a16.8,16.8,0,0,1,.51-2.754,16.52,16.52,0,0,1,.733-2.694,32.28,32.28,0,0,1-1.256,5.452Z" transform="translate(-356.539 -259.557)" fill="#fafafa"/>
      <path id="Path_6033" data-name="Path 6033" d="M429.618,396.584a28.339,28.339,0,0,1-3.088-4.224,14.479,14.479,0,0,1,1.641,2.04,14.211,14.211,0,0,1,1.447,2.184Z" transform="translate(-348.622 -273.159)" fill="#fafafa"/>
      <path id="Path_6034" data-name="Path 6034" d="M444.272,388.832c-.065.032-.487-.807-1.154-1.743s-1.312-1.618-1.261-1.669a5.387,5.387,0,0,1,1.46,1.53A5.229,5.229,0,0,1,444.272,388.832Z" transform="translate(-356.841 -269.437)" fill="#fafafa"/>
      <path id="Path_6035" data-name="Path 6035" d="M456.657,386.341a23.03,23.03,0,0,1-1.484-1.943,24.153,24.153,0,0,1-1.484-1.938A12.564,12.564,0,0,1,456.657,386.341Z" transform="translate(-363.189 -267.849)" fill="#fafafa"/>
      <path id="Path_6036" data-name="Path 6036" d="M454.93,396.311a4.469,4.469,0,0,0-.552-1.581,4.566,4.566,0,0,0-1.238-1.131c0-.028.213,0,.505.144a2.5,2.5,0,0,1,.927.853,2.546,2.546,0,0,1,.413,1.2C455.032,396.1,454.971,396.311,454.93,396.311Z" transform="translate(-362.895 -273.818)" fill="#fafafa"/>
      <path id="Path_6037" data-name="Path 6037" d="M445.413,409.889c-.037,0-.023-.125-.06-.287a.95.95,0,0,0-.32-.533.927.927,0,0,0-.593-.181c-.167,0-.274.042-.292,0s.07-.125.269-.181a.881.881,0,0,1,1.1.862C445.515,409.792,445.441,409.9,445.413,409.889Z" transform="translate(-358.07 -281.912)" fill="#fafafa"/>
      <path id="Path_6038" data-name="Path 6038" d="M338.42,425.8a6.681,6.681,0,0,1-3.82-3.8,11.294,11.294,0,0,0,3.82,3.82Z" transform="translate(-299.313 -289.057)" fill="#fafafa"/>
      <path id="Path_6039" data-name="Path 6039" d="M269.135,156.928c-.746-7.052-2.1-13.686-2.462-20.6a1.252,1.252,0,0,0-.329-.955.862.862,0,0,0-1.2.348,2.633,2.633,0,0,0-.232,1.391,31.907,31.907,0,0,1-1.854,10.789c-.793,2.249-1.855,4.4-2.448,6.709s.524,3.088,1.562,5.234" transform="translate(-259.538 -135.256)" fill="#ffbe9d"/>
      <path id="Path_6040" data-name="Path 6040" d="M261.276,168.719a6.458,6.458,0,0,1-2.453-6.106,18.382,18.382,0,0,1,1.474-3.95,6.7,6.7,0,0,0,.635-4.108,6.917,6.917,0,0,1-.371-1.572c0-.538.348-1.141.885-1.164a1.317,1.317,0,0,1,1.006.607c.9,1.117,1.627,4.381,1.173,6.82" transform="translate(-258.628 -144.14)" fill="#ffbe9d"/>
      <path id="Path_6041" data-name="Path 6041" d="M263.488,159.122s.046-.376.074-1.052a12.628,12.628,0,0,0-.236-2.847,10.306,10.306,0,0,0-.556-1.887,3.821,3.821,0,0,0-.519-.927,1.321,1.321,0,0,0-.867-.589.835.835,0,0,0-.774.649,1.966,1.966,0,0,0,.074,1.192,6.174,6.174,0,0,1,.325,1.312,5.253,5.253,0,0,1-.051,1.391c-.325,1.882-1.326,3.4-1.854,4.91a6.652,6.652,0,0,0-.413,2.2,6.431,6.431,0,0,0,.287,1.929,6.616,6.616,0,0,0,1.391,2.462c.464.5.765.714.751.737a1.224,1.224,0,0,1-.232-.153,5.159,5.159,0,0,1-.589-.524,6.342,6.342,0,0,1-1.484-2.471,6.417,6.417,0,0,1-.325-1.98,6.8,6.8,0,0,1,.4-2.272c.51-1.539,1.5-3.06,1.8-4.873a4.8,4.8,0,0,0,.051-1.335,5.885,5.885,0,0,0-.311-1.275,2.174,2.174,0,0,1-.065-1.331,1.289,1.289,0,0,1,.366-.57.853.853,0,0,1,.64-.227,1.516,1.516,0,0,1,1.057.654,4.052,4.052,0,0,1,.538,1,9.736,9.736,0,0,1,.538,1.929,11.452,11.452,0,0,1,.162,2.884,5.768,5.768,0,0,1-.1.779,1.053,1.053,0,0,1-.083.287Z" transform="translate(-258.49 -144.015)" fill="#eb996e"/>
      <path id="Path_6042" data-name="Path 6042" d="M396.369,240.16a3.2,3.2,0,0,0,2.861,2.476,4.015,4.015,0,0,0,3.491-1.715,5.41,5.41,0,0,0,.867-3.876,5.319,5.319,0,0,0-3.445-4.409,3.843,3.843,0,0,0-4.743,2.355l-2.17,3.027Z" transform="translate(-330.761 -187.401)" fill="#263238"/>
      <path id="Path_6043" data-name="Path 6043" d="M363.6,219.8a12.625,12.625,0,0,0-11.345-14.141,12.878,12.878,0,0,0-13.719,11.058,131.553,131.553,0,0,0-1.618,13.909c.083,6.491,3.871,9,5.411,9.736a8.5,8.5,0,0,0,1.706.422h0a.042.042,0,0,1,.032.051l-1.437,7.418c-.654,4.873,2.068,9.222,6.931,9.931s8.7-3.032,9.444-7.91Z" transform="translate(-300.557 -172.987)" fill="#ffbe9d"/>
      <path id="Path_6044" data-name="Path 6044" d="M342.806,236.8c.107.153.96-.306,2.059-.144s1.817.83,1.957.709c.07-.051-.028-.306-.338-.612a2.837,2.837,0,0,0-1.544-.737,2.745,2.745,0,0,0-1.664.283C342.89,236.508,342.751,236.731,342.806,236.8Z" transform="translate(-303.709 -189.286)" fill="#263238"/>
      <path id="Path_6045" data-name="Path 6045" d="M363.849,241.36c.107.153.964-.306,2.059-.144s1.822.83,1.961.709c.065-.051-.028-.306-.343-.617a2.833,2.833,0,0,0-1.539-.733,2.74,2.74,0,0,0-1.664.283C363.946,241.068,363.8,241.291,363.849,241.36Z" transform="translate(-314.996 -191.731)" fill="#263238"/>
      <path id="Path_6046" data-name="Path 6046" d="M352.581,242.992a7.385,7.385,0,0,0-1.734-.58c-.278-.07-.533-.167-.552-.362a1.442,1.442,0,0,1,.306-.8l1.141-2.012a37.706,37.706,0,0,0,2.67-5.309,36.925,36.925,0,0,0-3.092,5.1l-1.108,2.026a1.692,1.692,0,0,0-.306,1.08.728.728,0,0,0,.4.464,2,2,0,0,0,.464.134A7.218,7.218,0,0,0,352.581,242.992Z" transform="translate(-307.521 -188.18)" fill="#263238"/>
      <path id="Path_6047" data-name="Path 6047" d="M351.915,279.906s4.173.964,9.945-1.447c0,0-2.485,5.355-10.33,3.449Z" transform="translate(-308.394 -212.066)" fill="#eb996e"/>
      <path id="Path_6048" data-name="Path 6048" d="M355.647,258.72a2,2,0,0,1,1.854-.464,1.855,1.855,0,0,1,1.15.853,1.145,1.145,0,0,1-.107,1.317,1.326,1.326,0,0,1-1.488.153,4.116,4.116,0,0,1-1.28-1.039,1.172,1.172,0,0,1-.269-.371.362.362,0,0,1,.065-.408" transform="translate(-310.508 -201.195)" fill="#eb996e"/>
      <path id="Path_6049" data-name="Path 6049" d="M357.865,256.129c-.176-.037-.352,1.154-1.493,1.855s-2.392.38-2.425.547c-.028.074.25.274.784.366a3,3,0,0,0,2.012-.389,2.615,2.615,0,0,0,1.178-1.562C358.037,256.449,357.949,256.134,357.865,256.129Z" transform="translate(-309.69 -200.088)" fill="#263238"/>
      <path id="Path_6050" data-name="Path 6050" d="M365.488,233.958c.065.315,1.182.334,2.443.677s2.258.844,2.467.6c.093-.116-.046-.422-.422-.774a4.414,4.414,0,0,0-3.741-.974C365.725,233.61,365.465,233.809,365.488,233.958Z" transform="translate(-315.88 -187.899)" fill="#263238"/>
      <path id="Path_6051" data-name="Path 6051" d="M345.19,229.422c.153.278.95.13,1.855.25s1.655.408,1.854.176c.1-.116,0-.385-.292-.668a2.708,2.708,0,0,0-3-.343C345.264,229.046,345.121,229.288,345.19,229.422Z" transform="translate(-304.984 -185.287)" fill="#263238"/>
      <path id="Path_6052" data-name="Path 6052" d="M337.312,210.857c1.34,2.045,5.6.779,8.165-.626a6.111,6.111,0,0,0,8.345-1.725c1.47,1.855,4.46,1.252,5.564-.858s.464-5.016-1.02-6.862a9.519,9.519,0,0,0-5.842-3.176,13.58,13.58,0,0,0-13.765,5.67,9.07,9.07,0,0,0-1.423,7.576" transform="translate(-300.602 -168.581)" fill="#263238"/>
      <path id="Path_6053" data-name="Path 6053" d="M353.168,199.177a22.283,22.283,0,0,0-3.111.176,11.313,11.313,0,0,0-6.435,3.463,14.02,14.02,0,0,0-3.069,6.7,18.548,18.548,0,0,0-.162,3.106,2.842,2.842,0,0,1-.172-.835,9.626,9.626,0,0,1,.037-2.318,13.506,13.506,0,0,1,3.069-6.954,11.127,11.127,0,0,1,6.713-3.482,9.871,9.871,0,0,1,2.318-.037,2.721,2.721,0,0,1,.811.176Z" transform="translate(-302.299 -169.419)" fill="#455a64"/>
      <path id="Path_6054" data-name="Path 6054" d="M353.147,209.428a2.1,2.1,0,0,1-.1-.728,7.19,7.19,0,0,1,.209-2,8.229,8.229,0,0,1,10.33-6.083,7.526,7.526,0,0,1,1.855.788,2.012,2.012,0,0,1,.589.464,15.153,15.153,0,0,0-2.513-.927,8.211,8.211,0,0,0-9.968,5.87A14.5,14.5,0,0,0,353.147,209.428Z" transform="translate(-309.204 -170.138)" fill="#455a64"/>
      <path id="Path_6055" data-name="Path 6055" d="M378.776,210.043a24.233,24.233,0,0,0-.862,5.564,8.192,8.192,0,0,0,1.664,5.258c1.79,2.156,4.775,2.814,7.529,3.338a21.791,21.791,0,0,0,1.284-11.591,9.646,9.646,0,0,0-2.262-5.211,6.3,6.3,0,0,0-7.65-.927" transform="translate(-322.542 -172.978)" fill="#263238"/>
      <path id="Path_6056" data-name="Path 6056" d="M379.4,234.56a9.064,9.064,0,0,0-.422,5.1,33.4,33.4,0,0,1,.668,5.128,5.947,5.947,0,0,1-1.919,4.636,8.158,8.158,0,0,0-1.15.927,1.2,1.2,0,0,0-.241,1.358c.26.417,1.043.408,1.154-.07l-.07.121a.765.765,0,0,0,.649,1.154,3.472,3.472,0,0,0,2.476-1.215,7.586,7.586,0,0,0,1.47-3.709c.714-4.094.575-8.345,1.706-12.337" transform="translate(-321.641 -188.52)" fill="#263238"/>
      <path id="Path_6057" data-name="Path 6057" d="M344.41,292.319a9.973,9.973,0,0,0,13.32,7.075,19.938,19.938,0,0,0,6.208-4.5,14.544,14.544,0,0,1-13.478,16.9c-3.074.185-6.375-.751-8.308-3.148a9.32,9.32,0,0,1-1.855-6.027,21.956,21.956,0,0,1,1.215-6.305c.547-1.753,1.414-3.709,3.185-4.2" transform="translate(-302.368 -219.393)" fill="#00ae9f"/>
      <path id="Path_6058" data-name="Path 6058" d="M387.6,243.077a7.018,7.018,0,0,1,3.2,5.142,48.5,48.5,0,0,1,.264,6.254,9.863,9.863,0,0,0,1.808,5.888c1.391,1.725,3.593,2.541,5.564,3.593a18.42,18.42,0,0,1,9.18,11.011,14.008,14.008,0,0,1-3.426,13.608c-3.245,3.088-7.928,4.173-12.4,4.173-3.185,0-6.686-.686-8.674-3.176s-1.855-5.981-1.159-9.05,1.97-6.05,2.021-9.2a16.389,16.389,0,0,1-2.448,5.443c-.329.464-.89.974-1.391.7s-.348-1.136-.088-1.715c3.839-8.545,2.5-25.769,4.78-35.2" transform="translate(-323.567 -191.733)" fill="#263238"/>
      <path id="Path_6059" data-name="Path 6059" d="M388.776,243.808c.116-.037,4.6-.886,4.02,3.547s-4.905,2.939-4.9,2.814S388.776,243.808,388.776,243.808Z" transform="translate(-327.902 -193.432)" fill="#ffbe9d"/>
      <path id="Path_6060" data-name="Path 6060" d="M391.285,250.442a1.742,1.742,0,0,0,.195.139.783.783,0,0,0,.575.088,1.931,1.931,0,0,0,1.108-1.6,2.629,2.629,0,0,0-.074-1.136.9.9,0,0,0-.505-.668.4.4,0,0,0-.464.153c-.074.116-.06.209-.083.213s-.083-.088-.028-.264a.5.5,0,0,1,.213-.255.584.584,0,0,1,.464-.06,1.1,1.1,0,0,1,.719.793,2.68,2.68,0,0,1,.107,1.27,2.008,2.008,0,0,1-1.391,1.766.825.825,0,0,1-.691-.209C391.28,250.549,391.271,250.447,391.285,250.442Z" transform="translate(-329.715 -195.208)" fill="#eb996e"/>
      <path id="Path_6061" data-name="Path 6061" d="M339.29,301.666a10.953,10.953,0,0,1,.751-1.368,18.459,18.459,0,0,0,1.6-3.38,8.346,8.346,0,0,0,.4-3.672,14.35,14.35,0,0,0-.352-1.507,1.252,1.252,0,0,1,.2.376,4.921,4.921,0,0,1,.325,1.108,7.882,7.882,0,0,1-.338,3.769,15.566,15.566,0,0,1-1.683,3.394c-.26.408-.464.733-.635.95A2.34,2.34,0,0,1,339.29,301.666Z" transform="translate(-301.829 -219.189)" fill="#263238"/>
      <path id="Path_6062" data-name="Path 6062" d="M342.545,300.892c-.065,0-.19-.38-.589-.644s-.8-.264-.807-.334.1-.079.278-.083a1.164,1.164,0,0,1,.668.218,1.219,1.219,0,0,1,.436.552C342.591,300.771,342.577,300.882,342.545,300.892Z" transform="translate(-302.826 -223.529)" fill="#fafafa"/>
      <path id="Path_6063" data-name="Path 6063" d="M347.358,300.12a8.728,8.728,0,0,0-1.141-1.071,7.669,7.669,0,0,0-1.437-.621,2.082,2.082,0,0,1,1.567.422,2.151,2.151,0,0,1,1.011,1.27Z" transform="translate(-304.773 -222.766)" fill="#fafafa"/>
      <path id="Path_6064" data-name="Path 6064" d="M354.22,318.056a7.7,7.7,0,0,1,.269-1.892,7.617,7.617,0,0,1,.505-1.855,7.724,7.724,0,0,1-.269,1.9A7.616,7.616,0,0,1,354.22,318.056Z" transform="translate(-309.837 -231.295)" fill="#fafafa"/>
      <path id="Path_6065" data-name="Path 6065" d="M369.746,320.832a16.921,16.921,0,0,1,.125-3.992,16.289,16.289,0,0,1-.125,3.992Z" transform="translate(-318.13 -232.652)" fill="#fafafa"/>
    </g>
    <g id="freepik--character-1--inject-56" transform="translate(30.36 89.656)">
      <path id="Path_6066" data-name="Path 6066" d="M43.039,369.89,35.89,401.023l15.119.046,6.982-27.377Z" transform="translate(-35.89 -254.52)" fill="#b78876"/>
      <path id="Path_6067" data-name="Path 6067" d="M194.41,273.326c-1.437-1.924-3.088-3.774-3.843-6.055-.366-1.1-.51-2.272-.9-3.366a4.09,4.09,0,0,0-2.184-2.573,2.219,2.219,0,0,0-2.615.779l-5.188,15.175,2.99,11.656a53.18,53.18,0,0,0,9.514-2.726c2.791-1.256,4.636-3.269,4.831-6.324C197.15,277.494,195.847,275.254,194.41,273.326Z" transform="translate(-113.015 -196.205)" fill="#0e1740"/>
      <path id="Path_6068" data-name="Path 6068" d="M74.96,280.268s-18.035,7.849-20.288,11.391S45,320.456,45,320.456l19.009,5.564-.325,26.292h46.595l-.385-46.363-5.842-25.62s-10.288-.663-11.243-1.131S74.96,280.268,74.96,280.268Z" transform="translate(-40.776 -205.828)" fill="#5e2d77"/>
      <path id="Path_6069" data-name="Path 6069" d="M247.562,137.969c.148-1.062-.6-2.23-.06-3.162a2.633,2.633,0,0,1,1.442-.978,2.318,2.318,0,0,1,.89-.209.784.784,0,0,1,.728.464.992.992,0,0,1-.357.96,2.828,2.828,0,0,0-.7.807,4.841,4.841,0,0,0,.172,2.281,40.3,40.3,0,0,1,1.535,4.961" transform="translate(-149.286 -127.791)" fill="#b78876"/>
      <path id="Path_6070" data-name="Path 6070" d="M239.65,132.725c.065-1.609,1.391-7.947,1.437-9.555a3.2,3.2,0,0,1,1.924,2.615c.2,1.122.1,2.276.292,3.4a12.375,12.375,0,0,0,1.831,4.173,15.049,15.049,0,0,1,1.97,4.122c.357,1.484,1.7,5.341.654,6.454" transform="translate(-145.181 -122.187)" fill="#b78876"/>
      <path id="Path_6071" data-name="Path 6071" d="M203.262,167.18l-6.449,30.637c-.227,1.391-24.443,22.509-24.443,22.509l4.78,19.1,31.527-30.845a12.815,12.815,0,0,0,3.454-8.99l-.538-28.745Z" transform="translate(-109.094 -145.792)" fill="#b78876"/>
      <path id="Path_6072" data-name="Path 6072" d="M236.283,131.782l1.1,10.663,8.345,3.672s.1-.756.464-4.451c.394-4.071-3.983-5.819-5.934-8.809-.835-1.284-.617-3.649-1.261-6.579-.074-.338-.538-2.388-.788-3.486a2.476,2.476,0,0,0-1-1.507c-.38-.25-.807-.376-1.117,0S236.283,131.782,236.283,131.782Z" transform="translate(-143.218 -121.049)" fill="#b78876"/>
      <path id="Path_6073" data-name="Path 6073" d="M240.64,155.3a3.359,3.359,0,0,0,.8-3.431,8.749,8.749,0,0,0-1.97-3.134,12.435,12.435,0,0,1-2.174-3.014c-.352-.8-.519-1.678-.927-2.462a2.532,2.532,0,0,0-1.97-1.535c.7,4.409.682,6.954,2.114,11.785" transform="translate(-142.365 -132.136)" fill="#b78876"/>
      <path id="Path_6074" data-name="Path 6074" d="M235.031,146.839s-.032-.121-.083-.352-.139-.617-.223-1.011c-.2-.927-.464-2.11-.737-3.468l-.028-.13h.134a2.16,2.16,0,0,1,1.558.584,4.678,4.678,0,0,1,1.307,2.23,11.564,11.564,0,0,0,.728,1.924,5.934,5.934,0,0,0,.816,1.127,1.683,1.683,0,0,1,.278.44,3.418,3.418,0,0,1-.352-.38,5.267,5.267,0,0,1-.89-1.1,10.931,10.931,0,0,1-.8-1.943,4.585,4.585,0,0,0-1.252-2.123,1.97,1.97,0,0,0-1.391-.533l.111-.139A34.867,34.867,0,0,1,235.031,146.839Z" transform="translate(-142.129 -132.22)" fill="#7c5142"/>
      <path id="Path_6075" data-name="Path 6075" d="M242.853,136.625a39.951,39.951,0,0,1-.77-4.349,40.416,40.416,0,0,1-.533-4.386,38.868,38.868,0,0,1,.77,4.353A40.407,40.407,0,0,1,242.853,136.625Z" transform="translate(-146.2 -124.718)" fill="#7c5142"/>
      <path id="Path_6076" data-name="Path 6076" d="M248.5,140.387a.52.52,0,0,1,.06.162h-.07a24.965,24.965,0,0,1-.844-3.032c-.2-.895-.343-1.711-.431-2.318a3.593,3.593,0,0,1-.083-.969c.07,0,.352,1.442.751,3.245.32,1.442.617,2.657.677,3.065h-.07C248.489,140.443,248.489,140.387,248.5,140.387Z" transform="translate(-149.193 -128.119)" fill="#7c5142"/>
      <path id="Path_6077" data-name="Path 6077" d="M248.2,157.407c-.037,0-.2-.241-.538-.6a5.216,5.216,0,0,0-3.361-1.623,5.562,5.562,0,0,1-.8-.051,1.855,1.855,0,0,1,.807-.121,4.562,4.562,0,0,1,3.482,1.683A1.818,1.818,0,0,1,248.2,157.407Z" transform="translate(-147.246 -139.264)" fill="#7c5142"/>
      <path id="Path_6078" data-name="Path 6078" d="M238.107,158.5a6.311,6.311,0,0,1-.552-1.261,27.956,27.956,0,0,1-.955-3.18,27.536,27.536,0,0,1-.584-3.245,6.733,6.733,0,0,1-.083-1.391,9.373,9.373,0,0,1,.25,1.349c.139.83.352,1.98.649,3.245s.631,2.374.886,3.181A9.769,9.769,0,0,1,238.107,158.5Z" transform="translate(-143.184 -136.266)" fill="#7c5142"/>
      <path id="Path_6079" data-name="Path 6079" d="M160.16,272.385a2.939,2.939,0,0,1,3.95-.927c3.4-2.782,6.885-5.48,10.288-8.248-1.113,5.564-1.855,13.32.635,18.411,0,0,3.139,5.832,8.137,4.942l-4.46,4.367-7.033,6.523" transform="translate(-102.545 -197.3)" fill="#5e2d77"/>
      <path id="Path_6080" data-name="Path 6080" d="M157.78,284.389a3.755,3.755,0,0,1,.654-2.091,3.8,3.8,0,0,1,1.558-1.549A8.128,8.128,0,0,0,157.78,284.389Z" transform="translate(-101.268 -206.708)" fill="#263238"/>
      <path id="Path_6081" data-name="Path 6081" d="M165.063,288.03a2.861,2.861,0,0,1-.389-1.011,6.537,6.537,0,0,1,.895-5.058,2.9,2.9,0,0,1,.714-.821c.032.028-.236.343-.566.927a7.371,7.371,0,0,0-.876,2.388,7.492,7.492,0,0,0,0,2.545A10.181,10.181,0,0,1,165.063,288.03Z" transform="translate(-104.874 -206.917)" fill="#263238"/>
      <path id="Path_6082" data-name="Path 6082" d="M189.422,295.092a3.764,3.764,0,0,1-1.108.464,6.161,6.161,0,0,1-3.245-.1,7.817,7.817,0,0,1-3.9-2.782,13.139,13.139,0,0,1-2.318-5.429,40.962,40.962,0,0,1-.556-10.719c.107-1.391.26-2.476.389-3.245.06-.38.116-.672.158-.872a1.526,1.526,0,0,1,.074-.3,1.3,1.3,0,0,1-.028.311l-.111.876c-.1.76-.227,1.854-.311,3.245a42.973,42.973,0,0,0,.621,10.663,13.093,13.093,0,0,0,2.249,5.3,7.659,7.659,0,0,0,3.779,2.782,6.24,6.24,0,0,0,3.176.172A8.892,8.892,0,0,0,189.422,295.092Z" transform="translate(-112.2 -202.074)" fill="#fafafa"/>
      <path id="Path_6083" data-name="Path 6083" d="M86.051,363.11c-.065,0-.121-6.593-.121-14.72s.056-14.72.121-14.72.121,6.588.121,14.72S86.12,363.11,86.051,363.11Z" transform="translate(-62.73 -235.093)" fill="#263238"/>
      <path id="Path_6084" data-name="Path 6084" d="M77.714,312.654c-.051,0-.037-.658-.264-1.683a9.329,9.329,0,0,0-.58-1.743,10.476,10.476,0,0,0-1.145-1.929,10.591,10.591,0,0,0-1.562-1.613,9.587,9.587,0,0,0-1.525-1.02c-.927-.487-1.572-.649-1.558-.7a1.623,1.623,0,0,1,.464.093,3.5,3.5,0,0,1,.515.172,5.059,5.059,0,0,1,.663.283,8.509,8.509,0,0,1,1.567.992A10.415,10.415,0,0,1,75.9,307.15a9.856,9.856,0,0,1,1.159,1.989,8.578,8.578,0,0,1,.561,1.8,5.664,5.664,0,0,1,.1.714,3.958,3.958,0,0,1,.028.542A2,2,0,0,1,77.714,312.654Z" transform="translate(-54.765 -219.162)" fill="#263238"/>
      <path id="Path_6085" data-name="Path 6085" d="M126.837,281.17a2.157,2.157,0,0,1,.079.394,9.677,9.677,0,0,1,.121,1.136,11.822,11.822,0,0,1-.58,4.149,12.175,12.175,0,0,1-3.361,5.2,11.966,11.966,0,0,1-14.284,1.094,12.165,12.165,0,0,1-4.1-4.636,11.864,11.864,0,0,1-1.192-4.015,10.5,10.5,0,0,1-.051-1.141,2.373,2.373,0,0,1,0-.4,2.374,2.374,0,0,1,.032.394,11.271,11.271,0,0,0,.093,1.131,12.249,12.249,0,0,0,1.252,3.95,12.1,12.1,0,0,0,4.066,4.539,11.822,11.822,0,0,0,14.011-1.052,12.1,12.1,0,0,0,3.347-5.1,12.411,12.411,0,0,0,.649-4.094,7.9,7.9,0,0,0-.079-1.131A1.221,1.221,0,0,1,126.837,281.17Z" transform="translate(-72.134 -206.933)" fill="#263238"/>
      <path id="Path_6086" data-name="Path 6086" d="M65.629,361.416c0,.065-3.853-1.145-8.554-2.7s-8.5-2.865-8.475-2.93,3.848,1.145,8.554,2.7S65.648,361.351,65.629,361.416Z" transform="translate(-42.707 -246.954)" fill="#fafafa"/>
      <path id="Path_6087" data-name="Path 6087" d="M131.162,354c0,.07-10.223.167-22.834.218s-22.838.042-22.838,0,10.223-.167,22.838-.218S131.162,353.935,131.162,354Z" transform="translate(-62.494 -245.973)" fill="#fafafa"/>
      <path id="Path_6088" data-name="Path 6088" d="M131.394,362.621c0,.065-10.279.121-22.95.121s-22.954-.056-22.954-.121,10.274-.121,22.954-.121S131.394,362.551,131.394,362.621Z" transform="translate(-62.494 -250.556)" fill="#fafafa"/>
      <path id="Path_6089" data-name="Path 6089" d="M139.671,373.34a2.108,2.108,0,0,1-.13.376c-.1.26-.241.612-.413,1.057l-.306.76c-.121.278-.264.57-.413.89-.306.631-.621,1.363-1.062,2.133l-.668,1.215c-.232.422-.51.839-.779,1.284-.529.895-1.178,1.794-1.855,2.754a45.7,45.7,0,0,1-10.807,10.6c-.974.649-1.887,1.284-2.782,1.794-.464.26-.872.529-1.3.756l-1.243.64c-.774.422-1.516.728-2.151,1.02-.32.139-.617.278-.895.394l-.77.292-1.062.394a2.034,2.034,0,0,1-.38.121,2.406,2.406,0,0,1,.362-.167l1.048-.436.756-.311c.278-.121.57-.264.886-.413.631-.3,1.363-.617,2.128-1.048l1.219-.649c.422-.232.844-.505,1.289-.765.895-.515,1.8-1.154,2.782-1.8a46.952,46.952,0,0,0,10.756-10.548c.672-.95,1.326-1.854,1.855-2.731.274-.44.556-.853.793-1.27l.672-1.205c.464-.756.774-1.484,1.09-2.109.153-.315.306-.6.431-.876s.227-.524.325-.751c.19-.436.343-.779.464-1.039A3.8,3.8,0,0,1,139.671,373.34Z" transform="translate(-77.067 -256.37)" fill="#263238"/>
      <g id="Group_8030" data-name="Group 8030" transform="translate(37.694 120.985)" opacity="0.1">
        <path id="Path_6090" data-name="Path 6090" d="M140.219,382a25.754,25.754,0,0,1-10.956,8.313c-2.193.844-4.488,1.423-6.611,2.429a10.154,10.154,0,0,0-5.1,4.669c-.737,1.66-.38,4.173,1.391,4.534a3.76,3.76,0,0,0,2.017-.311c9.064-3.287,15.022-11.591,19.231-19.635" transform="translate(-117.191 -382)" fill="#0e1740"/>
      </g>
      <path id="Path_6091" data-name="Path 6091" d="M87.4,204.08c-1.957,1.535-2.086,4.4-1.989,6.89s.125,5.313-1.688,7.029c-1.484,1.414-4.08,1.938-4.506,3.945a2.318,2.318,0,0,0,3.746,2.295,4.064,4.064,0,0,0,1,4.636c1.34,1.052,3.681.552,4.173-1.062a2.049,2.049,0,1,0,3.987.927" transform="translate(-59.096 -165.584)" fill="#263238"/>
      <path id="Path_6092" data-name="Path 6092" d="M141.387,216.549a2.471,2.471,0,1,0,4.636-1.678c-.385-.964-1.391-1.692-1.414-2.726-.06-1.252,1.256-2.082,2.411-2.569s2.508-1.136,2.689-2.374-.853-2.188-1.715-3.037-1.692-2.137-1.085-3.185c.311-.533.927-.821,1.326-1.289a2.716,2.716,0,0,0-.5-3.667,5.068,5.068,0,0,0-3.885-.927,33.432,33.432,0,0,0-3.987,1,16.408,16.408,0,0,1-12.982-2.318" transform="translate(-84.694 -160.06)" fill="#263238"/>
      <path id="Path_6093" data-name="Path 6093" d="M99.55,206.878l4.771,27.651a8.9,8.9,0,0,0,10.334,7.26h0a8.9,8.9,0,0,0,7.3-9.551c-.218-2.453-.4-4.483-.4-4.483s6.927-1.78,6.329-8.809c-.292-3.4-1.456-10.362-2.587-16.649a13.158,13.158,0,0,0-14.233-10.761l-.677.065a13.07,13.07,0,0,0-10.83,15.277Z" transform="translate(-69.92 -158.822)" fill="#b78876"/>
      <path id="Path_6094" data-name="Path 6094" d="M149.821,223.664a1,1,0,0,1-.867,1.108.96.96,0,0,1-1.122-.8,1,1,0,0,1,.867-1.108.96.96,0,0,1,1.122.8Z" transform="translate(-95.929 -175.65)" fill="#263238"/>
      <path id="Path_6095" data-name="Path 6095" d="M148.19,221.522c-.111.139-.927-.348-2.008-.241s-1.822.728-1.952.607c-.06-.056.042-.3.362-.589a2.754,2.754,0,0,1,1.549-.644,2.671,2.671,0,0,1,1.613.352C148.112,221.23,148.246,221.457,148.19,221.522Z" transform="translate(-93.992 -174.467)" fill="#263238"/>
      <path id="Path_6096" data-name="Path 6096" d="M127.017,226.33a1.011,1.011,0,0,1-.872,1.1.964.964,0,0,1-1.122-.8,1.011,1.011,0,0,1,.867-1.108.969.969,0,0,1,1.127.807Z" transform="translate(-83.695 -177.078)" fill="#263238"/>
      <path id="Path_6097" data-name="Path 6097" d="M125.32,224.186c-.111.144-.927-.343-2.008-.236s-1.817.728-1.952.607c-.06-.056.042-.3.362-.589a2.782,2.782,0,0,1,1.549-.644,2.638,2.638,0,0,1,1.613.352C125.242,223.9,125.357,224.126,125.32,224.186Z" transform="translate(-81.725 -175.898)" fill="#263238"/>
      <path id="Path_6098" data-name="Path 6098" d="M138.472,231.306a7.081,7.081,0,0,1,1.72-.491c.274-.056.533-.134.561-.329a1.456,1.456,0,0,0-.264-.8l-1.025-2.021a36.419,36.419,0,0,1-2.365-5.318,36.717,36.717,0,0,1,2.782,5.1l.988,2.04a1.59,1.59,0,0,1,.246,1.066.691.691,0,0,1-.413.464,2.078,2.078,0,0,1-.464.111,7.311,7.311,0,0,1-1.766.176Z" transform="translate(-90.171 -175.383)" fill="#263238"/>
      <path id="Path_6099" data-name="Path 6099" d="M123.98,215.261c-.079.306-1.168.269-2.42.547s-2.249.723-2.439.464c-.088-.116.06-.413.464-.737a4.172,4.172,0,0,1,1.762-.816,4.117,4.117,0,0,1,1.943.042C123.758,214.913,124.013,215.122,123.98,215.261Z" transform="translate(-80.52 -171.239)" fill="#263238"/>
      <path id="Path_6100" data-name="Path 6100" d="M146.952,214.771c-.167.264-.927.083-1.855.158s-1.637.329-1.855.088c-.088-.116,0-.376.315-.64a2.555,2.555,0,0,1,1.451-.547,2.527,2.527,0,0,1,1.507.352C146.891,214.405,147.021,214.646,146.952,214.771Z" transform="translate(-93.453 -170.81)" fill="#263238"/>
      <path id="Path_6101" data-name="Path 6101" d="M103.989,202.056l-.037.037a5.564,5.564,0,0,0-1.706,3.774v.144c-.079,2.035.167,4.071.07,6.1a9.109,9.109,0,0,1-1.943,5.661c-.552.626-1.59,1.122-2.156.505a1.72,1.72,0,0,1-.343-.895c-.844-4.8-2.587-8.971-3.069-14.039a4.27,4.27,0,0,1,1.433-3.644c.983-.867,2.2-1.78,3.436-1.335s2.972,2.5,3.978,3.343" transform="translate(-67.478 -162.457)" fill="#263238"/>
      <path id="Path_6102" data-name="Path 6102" d="M100.485,230.951c-.125-.037-4.97-.955-4.349,3.834s5.3,3.181,5.295,3.041S100.485,230.951,100.485,230.951Z" transform="translate(-68.175 -179.947)" fill="#b78876"/>
      <path id="Path_6103" data-name="Path 6103" d="M101.244,238.131a1.27,1.27,0,0,1-.209.148.821.821,0,0,1-.621.1,2.09,2.09,0,0,1-1.2-1.729,2.782,2.782,0,0,1,.079-1.229.983.983,0,0,1,.547-.723.431.431,0,0,1,.519.167c.083.125.065.227.093.232s.093-.093.028-.287a.542.542,0,0,0-.227-.278.64.64,0,0,0-.464-.06,1.192,1.192,0,0,0-.779.858,2.916,2.916,0,0,0-.116,1.391,2.191,2.191,0,0,0,1.488,1.91.886.886,0,0,0,.746-.227A.5.5,0,0,0,101.244,238.131Z" transform="translate(-69.666 -181.873)" fill="#7c5142"/>
      <path id="Path_6104" data-name="Path 6104" d="M104.71,192.3c-1.391-1.808,1.6-4.887,3.9-5.865s5.54-.13,7.979.422a13.027,13.027,0,0,0,4.636.677,10.663,10.663,0,0,0,2.972-1.071,7.8,7.8,0,0,1,3.014-.927A2.912,2.912,0,0,1,129.9,186.9a1.832,1.832,0,0,1-.978,2.573,2.374,2.374,0,1,1,1.057,4.312c.635-.584,1.766.172,1.766,1.029a2.515,2.515,0,0,1-1.47,1.984,9.04,9.04,0,0,1-6.426.524c-2.142-.5-4.173-1.391-6.305-1.947s-5.707-1.558-7.7-.626c-1.465.682-2.346,2.615-3.245,2.318a2.944,2.944,0,0,1-1.729-2.012,8.512,8.512,0,0,1-.176-2.745" transform="translate(-72.613 -155.636)" fill="#263238"/>
      <path id="Path_6105" data-name="Path 6105" d="M105.71,229.708a41.916,41.916,0,0,0,.872,7.576,14.164,14.164,0,0,0,3.436,6.7c2.318,2.378,5.36,4.636,8.651,5.2a15.18,15.18,0,0,0,10.914-2.318,5.205,5.205,0,0,0,1.966-4.924,3.653,3.653,0,0,0,2.086-3.06c.074-1.3-.719-2.921-1.743-3.092.77-.13.992-1.354.7-2.045a1.883,1.883,0,0,0-2.077-.751,5.359,5.359,0,0,0-2.072,1.066,7.311,7.311,0,0,1-2.008,1.2c-2.485.807-5-1.391-7.613-1.284-2.36.093-4.46,2.054-6.8,1.725a4.715,4.715,0,0,1-3.153-2.193c-.723-1.108-.408-5.2-.691-6.491" transform="translate(-73.339 -177.883)" fill="#263238"/>
      <g id="Group_8031" data-name="Group 8031" transform="translate(47.592 62.379)" opacity="0.6">
        <path id="Path_6106" data-name="Path 6106" d="M142.258,256.079a4.427,4.427,0,0,1-.575-.176,3.079,3.079,0,0,0-2.68.487c-.3.213-.464.385-.464.362a1.152,1.152,0,0,1,.376-.464,2.782,2.782,0,0,1,2.833-.51C142.091,255.893,142.272,256.055,142.258,256.079Z" transform="translate(-138.54 -255.593)" fill="#455a64"/>
      </g>
      <path id="Path_6107" data-name="Path 6107" d="M135.471,245.149c.176-.028.292,1.145,1.391,1.855s2.318.487,2.346.649c.023.07-.255.255-.784.32a2.926,2.926,0,0,1-1.952-.464,2.545,2.545,0,0,1-1.076-1.586C135.29,245.451,135.392,245.149,135.471,245.149Z" transform="translate(-89.238 -187.612)" fill="#fff"/>
      <path id="Path_6108" data-name="Path 6108" d="M128.09,255.238a1.241,1.241,0,0,1,.3.111c.2.074.491.176.876.283a15.631,15.631,0,0,0,3.338.524,14.726,14.726,0,0,0,2.318-.046,12.981,12.981,0,0,0,2.62-.51,10.663,10.663,0,0,0,2.671-1.219,8.1,8.1,0,0,0,2.318-2.1,4.817,4.817,0,0,0,.927-3.477v-.1l.083-.037a3.76,3.76,0,0,0,1.451-1.192,4.233,4.233,0,0,0,.464-.779,2.814,2.814,0,0,0,.2-.839,3.306,3.306,0,0,0-1.113-2.8l-.07-.056.056-.07a1.947,1.947,0,0,0,.287-1.906,1.854,1.854,0,0,0-1.066-1.048,2.04,2.04,0,0,0-.969-.134c-.227.028-.338.07-.343.056a1.174,1.174,0,0,1,.338-.1,2.021,2.021,0,0,1,2.17,1.173,2.114,2.114,0,0,1-.278,2.072v-.125a3.5,3.5,0,0,1,1.215,2.963,3.055,3.055,0,0,1-.218.927,4.818,4.818,0,0,1-.487.825,3.932,3.932,0,0,1-1.539,1.275l.07-.139a4.984,4.984,0,0,1-.927,3.672A8.318,8.318,0,0,1,140.4,254.6a10.436,10.436,0,0,1-2.731,1.229,12.789,12.789,0,0,1-2.666.5,14.947,14.947,0,0,1-2.36,0,14.619,14.619,0,0,1-3.352-.607,7.546,7.546,0,0,1-.867-.329,1.716,1.716,0,0,1-.334-.153Z" transform="translate(-85.343 -184.724)" fill="#455a64"/>
      <path id="Path_6109" data-name="Path 6109" d="M81.767,223.2a.732.732,0,0,1-.246-.121,1.391,1.391,0,0,1-.464-.612,2.082,2.082,0,0,1-.1-1.233,2.49,2.49,0,0,1,.927-1.358,6.194,6.194,0,0,1,1.762-.927,11.42,11.42,0,0,0,2.049-.872,4.006,4.006,0,0,0,1.544-1.817,6.644,6.644,0,0,0,.547-2.55c.037-1.813-.38-3.533-.427-5.132a6.753,6.753,0,0,1,.96-4.094,3.857,3.857,0,0,1,2.318-1.59,2.624,2.624,0,0,1,.779-.037,1.9,1.9,0,0,1,.269.051,4.14,4.14,0,0,0-1.025.079,3.834,3.834,0,0,0-2.221,1.595,6.513,6.513,0,0,0-.876,3.987c.083,1.567.464,3.287.464,5.151a6.88,6.88,0,0,1-.589,2.643,4.214,4.214,0,0,1-1.646,1.91,10.961,10.961,0,0,1-2.11.872,6.1,6.1,0,0,0-1.72.862,2.346,2.346,0,0,0-.895,1.252,1.98,1.98,0,0,0,.051,1.168A1.544,1.544,0,0,0,81.767,223.2Z" transform="translate(-60.037 -164.92)" fill="#455a64"/>
      <path id="Path_6110" data-name="Path 6110" d="M129.764,193.529a1.056,1.056,0,0,1,.209-.1,1.554,1.554,0,0,1,.274-.093,2.318,2.318,0,0,1,.385-.079,2.87,2.87,0,0,1,2.365.848h0a3.843,3.843,0,0,1,.719,2.874,4.715,4.715,0,0,1-1.9,3.139,7.284,7.284,0,0,1-4.034,1.391,16.171,16.171,0,0,1-4.678-.5A21.216,21.216,0,0,1,116.3,198a21.358,21.358,0,0,0-2.782-1.618,7.6,7.6,0,0,0-2.689-.686,8.03,8.03,0,0,0-3.945.733c-.867.408-1.28.76-1.3.733a5.692,5.692,0,0,1,1.256-.821,8,8,0,0,1,4-.816,7.743,7.743,0,0,1,2.782.672,21.574,21.574,0,0,1,2.823,1.618,21.369,21.369,0,0,0,6.732,2.958,16.106,16.106,0,0,0,4.608.519,7.154,7.154,0,0,0,3.918-1.335,4.571,4.571,0,0,0,1.855-3,3.709,3.709,0,0,0-.644-2.782h0a2.824,2.824,0,0,0-2.249-.867,6.028,6.028,0,0,0-.9.213Z" transform="translate(-73.275 -159.772)" fill="#455a64"/>
      <path id="Path_6111" data-name="Path 6111" d="M126.642,185.05a2.712,2.712,0,0,1-.218,1.062,4.52,4.52,0,0,1-1.984,2.165,5.684,5.684,0,0,1-1.933.7,8.165,8.165,0,0,1-2.355,0,31.718,31.718,0,0,1-5.165-1.419A10.559,10.559,0,0,0,109.78,187a6.88,6.88,0,0,0-3.658,2.133,7.145,7.145,0,0,0-1.479,2.485c-.213.658-.255,1.043-.283,1.039a1.141,1.141,0,0,1,0-.278,5.309,5.309,0,0,1,.172-.788,6.848,6.848,0,0,1,1.442-2.573,6.954,6.954,0,0,1,3.737-2.235,10.626,10.626,0,0,1,5.322.538,32.7,32.7,0,0,0,5.123,1.428,7.942,7.942,0,0,0,2.295,0,5.563,5.563,0,0,0,1.882-.644,4.525,4.525,0,0,0,1.98-2.054A6.606,6.606,0,0,0,126.642,185.05Z" transform="translate(-72.611 -155.377)" fill="#455a64"/>
    </g>
    <g id="freepik--Lines--inject-56" transform="translate(102.899 68.39)">
      <path id="Path_6112" data-name="Path 6112" d="M214.828,110.587c-.042.051-2.647-2.068-5.823-4.734s-5.712-4.891-5.666-4.924,2.647,2.068,5.823,4.738S214.874,110.536,214.828,110.587Z" transform="translate(-198.244 -88.991)" fill="#263238"/>
      <path id="Path_6113" data-name="Path 6113" d="M255.545,93.6c-.065,0-.329-4.117-.584-9.2s-.413-9.212-.348-9.217.329,4.117.589,9.208S255.61,93.6,255.545,93.6Z" transform="translate(-225.738 -75.18)" fill="#263238"/>
      <path id="Path_6114" data-name="Path 6114" d="M234.538,96.325c-.065,0-.876-2.318-1.817-5.253s-1.651-5.3-1.586-5.322.876,2.318,1.817,5.248S234.6,96.307,234.538,96.325Z" transform="translate(-213.151 -80.849)" fill="#263238"/>
      <path id="Path_6115" data-name="Path 6115" d="M214.132,127.4a31.994,31.994,0,0,1-3.575-1.507,31.064,31.064,0,0,1-3.477-1.729,31.989,31.989,0,0,1,3.575,1.507A31.525,31.525,0,0,1,214.132,127.4Z" transform="translate(-200.251 -101.451)" fill="#263238"/>
      <path id="Path_6116" data-name="Path 6116" d="M194.042,119.332c0,.065-.394.074-.862,0s-.839-.158-.83-.223.394-.074.858,0S194.042,119.267,194.042,119.332Z" transform="translate(-192.35 -98.715)" fill="#263238"/>
      <path id="Path_6117" data-name="Path 6117" d="M231.651,77.332c-.07,0-.121-.376-.121-.844s.051-.848.121-.848.121.38.121.848S231.715,77.332,231.651,77.332Z" transform="translate(-213.365 -75.427)" fill="#263238"/>
      <path id="Path_6118" data-name="Path 6118" d="M280.735,93.409c.051.046-2.091,2.5-4.775,5.48s-4.9,5.364-4.961,5.318,2.091-2.494,4.775-5.48S280.688,93.368,280.735,93.409Z" transform="translate(-234.534 -84.957)" fill="#263238"/>
      <path id="Path_6119" data-name="Path 6119" d="M297.874,86.129c.046.046-.2.371-.552.723s-.672.593-.719.547.2-.371.552-.719S297.827,86.064,297.874,86.129Z" transform="translate(-248.265 -81.047)" fill="#263238"/>
      <path id="Path_6120" data-name="Path 6120" d="M297.308,111.74a4.229,4.229,0,0,1-.631.376c-.413.227-1.015.547-1.766.927-1.507.76-3.616,1.753-5.99,2.74s-4.567,1.776-6.171,2.318c-.8.264-1.447.464-1.9.6a3.709,3.709,0,0,1-.709.181,4.383,4.383,0,0,1,.682-.269l1.855-.672c1.586-.57,3.76-1.391,6.134-2.365s4.483-1.952,6.027-2.671l1.8-.853A5.005,5.005,0,0,1,297.308,111.74Z" transform="translate(-239.438 -94.79)" fill="#263238"/>
      <path id="Path_6121" data-name="Path 6121" d="M292.509,136.36a6.317,6.317,0,0,1-1.233.4c-.77.213-1.855.464-3.051.672s-2.318.325-3.1.38a5.962,5.962,0,0,1-1.294.023,8.578,8.578,0,0,1,1.28-.195c.788-.1,1.878-.246,3.074-.464s2.276-.427,3.055-.593A7,7,0,0,1,292.509,136.36Z" transform="translate(-241.417 -107.995)" fill="#263238"/>
      <path id="Path_6122" data-name="Path 6122" d="M312.75,133.761a7.455,7.455,0,0,1-2.671,0A7.455,7.455,0,0,1,312.75,133.761Z" transform="translate(-255.497 -106.536)" fill="#263238"/>
    </g>
    <g id="freepik--Plant--inject-56" transform="translate(119.74 210.64)">
      <path id="Path_6123" data-name="Path 6123" d="M238.628,382a4.938,4.938,0,0,1,3.245,2.077,8.684,8.684,0,0,1,1.391,3.677,15.363,15.363,0,0,1-1.2,7.77c-2.573-1.21-3.945-4.205-4.544-5.772-.927-2.471-1.164-7.52,1.08-7.752" transform="translate(-233.061 -382)" fill="#ea3224"/>
      <path id="Path_6124" data-name="Path 6124" d="M255.614,410.764a4.2,4.2,0,0,1-.1-4.219,5.563,5.563,0,0,1,3.422-2.624,2.355,2.355,0,0,1,1.98.139,1.8,1.8,0,0,1,.649,1.7,3.672,3.672,0,0,1-.807,1.711c-1.345,1.734-2.958,3.162-5.146,3.292" transform="translate(-242.792 -393.675)" fill="#ea3224"/>
      <path id="Path_6125" data-name="Path 6125" d="M254.644,421.9a1.947,1.947,0,0,1-.088-.529c-.032-.343-.079-.844-.111-1.46a18.216,18.216,0,0,1,.292-4.822,9.139,9.139,0,0,1,2.193-4.3,5.917,5.917,0,0,1,1.141-.927,1.511,1.511,0,0,1,.464-.241,11.851,11.851,0,0,0-1.474,1.312A9.5,9.5,0,0,0,255,415.151a20.664,20.664,0,0,0-.371,4.757A16.52,16.52,0,0,1,254.644,421.9Z" transform="translate(-242.471 -396.815)" fill="#263238"/>
      <path id="Path_6126" data-name="Path 6126" d="M242,390.29a5.563,5.563,0,0,1,.325.825c.19.538.464,1.317.77,2.286.635,1.938,1.465,4.636,2.318,7.627s1.539,5.726,2.012,7.71c.236.992.417,1.794.533,2.355a5.214,5.214,0,0,1,.158.872,4.9,4.9,0,0,1-.264-.844c-.162-.6-.371-1.391-.621-2.318-.524-1.97-1.252-4.692-2.1-7.682s-1.641-5.693-2.225-7.645l-.682-2.318A5.4,5.4,0,0,1,242,390.29Z" transform="translate(-235.822 -386.447)" fill="#263238"/>
      <path id="Path_6127" data-name="Path 6127" d="M238.07,417.476a9.838,9.838,0,0,0-7.029-5.564,2.073,2.073,0,0,0-2.174.538,2.027,2.027,0,0,0,.408,2.2,8.4,8.4,0,0,0,8.809,3.078" transform="translate(-228.674 -398.004)" fill="#ea3224"/>
      <path id="Path_6128" data-name="Path 6128" d="M235.62,416.789a1.779,1.779,0,0,1,.515.056,4.111,4.111,0,0,1,.589.125,7.128,7.128,0,0,1,.77.227,10.373,10.373,0,0,1,1.892.886,10.923,10.923,0,0,1,3.653,3.538,10.312,10.312,0,0,1,.927,1.855,6.653,6.653,0,0,1,.255.76,4.043,4.043,0,0,1,.148.589,1.613,1.613,0,0,1,.065.51c-.051,0-.195-.709-.654-1.78a11.589,11.589,0,0,0-.978-1.794,12.579,12.579,0,0,0-1.6-1.919,12.785,12.785,0,0,0-1.966-1.539,11.791,11.791,0,0,0-1.827-.927C236.334,416.965,235.611,416.844,235.62,416.789Z" transform="translate(-232.4 -400.659)" fill="#263238"/>
    </g>
  </g>
</svg>
