<svg xmlns="http://www.w3.org/2000/svg" width="161.048" height="160.009" viewBox="0 0 161.048 160.009">
  <g id="Private_data-pana" data-name="Private data-pana" transform="translate(-41.239 -39.019)">
    <g id="Group_15143" data-name="Group 15143" transform="translate(50.465 8.821)">
      <path id="Path_35015" data-name="Path 35015" d="M111.961,46.5a8.546,8.546,0,1,1-8.542-8.5,8.546,8.546,0,0,1,8.542,8.5Z" transform="translate(-36.188 -7.801)" fill="#efeaf1"/>
      <path id="Path_35016" data-name="Path 35016" d="M113.159,49.709a6.51,6.51,0,1,1-6.506-6.479,6.51,6.51,0,0,1,6.506,6.479Z" transform="translate(-39.422 -11.011)" fill="#efeaf1"/>
      <path id="Path_35017" data-name="Path 35017" d="M113.019,49.128a4.01,4.01,0,0,1-.174-.773,6.877,6.877,0,0,0-.75-2,6.76,6.76,0,0,0-.865-1.182,6.425,6.425,0,0,0-1.279-1.074,6.553,6.553,0,0,0-2.635-.966,6.656,6.656,0,0,0-1-.046,7.139,7.139,0,0,0-1,.108,6.224,6.224,0,0,0-.939.259,5.6,5.6,0,0,0-.862.386,5.822,5.822,0,0,0-.773.479,6.436,6.436,0,0,0-2,2.391,6.776,6.776,0,0,0-.622,2.036,3.817,3.817,0,0,1-.124.773,1.932,1.932,0,0,1-.07-.807,5.984,5.984,0,0,1,.495-2.167,6.313,6.313,0,0,1,.773-1.344,6.618,6.618,0,0,1,1.259-1.267,6.9,6.9,0,0,1,.815-.533,6.428,6.428,0,0,1,.927-.4,6.8,6.8,0,0,1,1.016-.282,6.625,6.625,0,0,1,1.078-.124,6.7,6.7,0,0,1,1.082.054,6.877,6.877,0,0,1,1.032.216,6.761,6.761,0,0,1,.947.363,6.417,6.417,0,0,1,.846.483,6.568,6.568,0,0,1,1.341,1.182,6.7,6.7,0,0,1,.862,1.29,5.969,5.969,0,0,1,.634,2.133A1.835,1.835,0,0,1,113.019,49.128Z" transform="translate(-39.281 -10.619)" fill="#5e2d77" opacity="0.4"/>
      <path id="Path_35018" data-name="Path 35018" d="M113.334,56.808l.039,1.12h-1.012v-1.1a4.81,4.81,0,0,1-2.531-.773l.5-1.217a4.06,4.06,0,0,0,1.974.688l-.023-1.688c-1.128-.259-2.391-.614-2.411-2.063,0-1.07.749-2.005,2.345-2.21V48.44h1.012v1.1a4.582,4.582,0,0,1,2.078.568l-.5,1.248a4.134,4.134,0,0,0-1.545-.506l.027,1.723c1.128.247,2.368.6,2.391,2.032C115.691,55.668,114.918,56.592,113.334,56.808Zm-1.078-4.462-.023-1.437c-.533.131-.742.429-.738.773S111.827,52.215,112.256,52.346Zm1.777,2.415c0-.352-.3-.541-.738-.688v1.4C113.821,55.352,114.037,55.085,114.033,54.76Z" transform="translate(-45.368 -14.208)" fill="#5e2d77" opacity="0.6"/>
    </g>
    <rect id="Rectangle_27094" data-name="Rectangle 27094" width="9.481" height="14.067" transform="matrix(0.191, -0.982, 0.982, 0.191, 186.644, 140.584)" fill="#fafafa"/>
    <path id="Path_35023" data-name="Path 35023" d="M444.654,302.641a1.05,1.05,0,0,1-.155.1l-.448.259-1.669.947-5.536,3.091-.046.023-.035-.039-.062-.093c-1.615-1.932-3.091-3.639-4.149-4.9l-1.259-1.507-.336-.413a.9.9,0,0,1-.108-.147.928.928,0,0,1,.128.131l.352.386,1.279,1.472,4.176,4.876.081.1h-.077l5.556-3.048,1.688-.912.46-.24A.86.86,0,0,1,444.654,302.641Z" transform="translate(-242.366 -168.557)" fill="#e0e0e0"/>
    <path id="Path_35024" data-name="Path 35024" d="M426.16,316.587c-.023-.027,1.263-1.1,2.87-2.4s2.932-2.318,2.955-2.3-1.263,1.1-2.874,2.4S426.183,316.614,426.16,316.587Z" transform="translate(-239.488 -175.877)" fill="#e0e0e0"/>
    <path id="Path_35025" data-name="Path 35025" d="M453.169,313.89c.035,0,.811,1.453,1.742,3.276s1.669,3.334,1.63,3.334-.811-1.449-1.742-3.272S453.138,313.905,453.169,313.89Z" transform="translate(-256.062 -177.105)" fill="#e0e0e0"/>
    <g id="Group_15141" data-name="Group 15141" transform="translate(-48.235 50.928)" opacity="0.6">
      <path id="Path_35026" data-name="Path 35026" d="M322.681,35.692a2.6,2.6,0,0,1-.073-.63,4.8,4.8,0,0,0-.085-.773,7.723,7.723,0,0,0-.2-1.016,9.488,9.488,0,0,0-1.055-2.615,9.851,9.851,0,0,0-2.434-2.8,9.62,9.62,0,0,0-4.045-1.885,9.716,9.716,0,0,0-5.084.317,9.117,9.117,0,0,0-2.473,1.259,11.157,11.157,0,0,0-1.113.9,10.521,10.521,0,0,0-.97,1.1,9.616,9.616,0,0,0-.278,11.393,10.89,10.89,0,0,0,.916,1.159,11.36,11.36,0,0,0,1.07.958,9.052,9.052,0,0,0,2.407,1.379,9.77,9.77,0,0,0,11.76-3.809,9.527,9.527,0,0,0,1.182-2.561,7.693,7.693,0,0,0,.247-1,5.354,5.354,0,0,0,.12-.749,2.8,2.8,0,0,1,.1-.626,3.036,3.036,0,0,1,0,.634,4.335,4.335,0,0,1-.069.772,7,7,0,0,1-.2,1.036,9.4,9.4,0,0,1-1.128,2.666,10.064,10.064,0,0,1-12.2,4.1,9.632,9.632,0,0,1-2.542-1.437,12.028,12.028,0,0,1-1.132-1,11.265,11.265,0,0,1-.97-1.2,10.1,10.1,0,0,1,.29-12.023,11.738,11.738,0,0,1,1.028-1.159,11.369,11.369,0,0,1,1.182-.95,9.5,9.5,0,0,1,2.608-1.31A10.033,10.033,0,0,1,321.53,30.5a9.333,9.333,0,0,1,1,2.7,6.951,6.951,0,0,1,.155,1.043,4.249,4.249,0,0,1,.031.773A2.966,2.966,0,0,1,322.681,35.692Z" transform="translate(-204.091 -25.287)" fill="#5e2d77"/>
      <path id="Path_35027" data-name="Path 35027" d="M324.739,35.6c.019.027-.158.185-.5.44l-.637.46c-.127.085-.259.182-.406.274l-.491.255a11.2,11.2,0,0,1-5.822,1.468L316,38.455l-.846-.135c-.139-.023-.278-.039-.413-.07l-.386-.1c-.259-.07-.518-.131-.773-.212a12.707,12.707,0,0,1-2.473-1.136,6.031,6.031,0,0,1-1.932-1.58c.043-.035.773.549,2.113,1.244a15.141,15.141,0,0,0,2.453.989c.236.066.483.12.734.182l.386.1.386.058.807.12.842.035a12.1,12.1,0,0,0,5.633-1.263l.491-.212c.151-.081.29-.166.421-.236l.676-.386C324.5,35.662,324.715,35.565,324.739,35.6Z" transform="translate(-208.13 -31.38)" fill="#5e2d77"/>
      <path id="Path_35028" data-name="Path 35028" d="M308.427,62.738c-.023-.031.158-.185.5-.44l.637-.475c.128-.085.259-.182.406-.274l.487-.255a11.2,11.2,0,0,1,5.826-1.468l.881.039.846.135c.139.023.278.039.413.066l.386.108c.259.07.518.131.773.209a12.932,12.932,0,0,1,2.473,1.159,6.151,6.151,0,0,1,1.932,1.58c-.039.035-.773-.549-2.109-1.244a15.14,15.14,0,0,0-2.434-1c-.236-.066-.487-.12-.734-.185l-.386-.093-.386-.058-.811-.12-.838-.035a12.1,12.1,0,0,0-5.641,1.267l-.495.212c-.151.081-.286.166-.417.236l-.676.386C308.67,62.672,308.45,62.769,308.427,62.738Z" transform="translate(-207.67 -46.479)" fill="#5e2d77"/>
      <path id="Path_35029" data-name="Path 35029" d="M323.107,51.845a89.644,89.644,0,0,1-9.91.031c-5.467-.135-9.9-.344-9.9-.51s4.439-.166,9.91-.031A91.427,91.427,0,0,1,323.107,51.845Z" transform="translate(-204.525 -41.211)" fill="#5e2d77"/>
      <path id="Path_35030" data-name="Path 35030" d="M327.557,45.784a90.753,90.753,0,0,1-.031-9.91A88.519,88.519,0,0,1,328.039,26a90.942,90.942,0,0,1,.031,9.91A88.941,88.941,0,0,1,327.557,45.784Z" transform="translate(-219.336 -25.724)" fill="#5e2d77"/>
      <path id="Path_35031" data-name="Path 35031" d="M319.923,45.729a8.007,8.007,0,0,1-2.388-2.357,13.413,13.413,0,0,1-1.766-3.218A11.93,11.93,0,0,1,315,35.719a11.432,11.432,0,0,1,1-4.4,13.623,13.623,0,0,1,1.932-3.114,8.582,8.582,0,0,1,2.473-2.272c.039.046-.947.873-2.171,2.507a15.2,15.2,0,0,0-1.777,3.091,11.42,11.42,0,0,0-.916,4.2,12.065,12.065,0,0,0,.7,4.25,14.353,14.353,0,0,0,1.611,3.164C319,44.836,319.977,45.663,319.923,45.729Z" transform="translate(-211.702 -25.684)" fill="#5e2d77"/>
      <path id="Path_35032" data-name="Path 35032" d="M328.826,25.995a7.894,7.894,0,0,1,2.388,2.357,13.383,13.383,0,0,1,1.773,3.214A11.938,11.938,0,0,1,333.76,36a11.342,11.342,0,0,1-1,4.393,13.739,13.739,0,0,1-1.932,3.118,8.6,8.6,0,0,1-2.469,2.268c-.035-.05.943-.873,2.167-2.507a14.707,14.707,0,0,0,1.777-3.091,11.423,11.423,0,0,0,.916-4.207,12.136,12.136,0,0,0-.692-4.25,14.352,14.352,0,0,0-1.615-3.164A26.833,26.833,0,0,0,328.826,25.995Z" transform="translate(-219.902 -25.719)" fill="#5e2d77"/>
    </g>
    <path id="Path_35033" data-name="Path 35033" d="M60.382,329.688l.491-1.089a3.915,3.915,0,1,0-7.178-3.125l-.514,1.1a2.194,2.194,0,0,0-2.577,1.24l-2.793,6.46a2.194,2.194,0,0,0,1.12,2.878l6.718,2.917a2.191,2.191,0,0,0,2.882-1.132l2.8-6.456a2.191,2.191,0,0,0-.954-2.8Zm-5.594,5.71-1.754-.773.823-1.159a1.159,1.159,0,1,1,1.159.483C54.935,334.517,54.788,335.4,54.788,335.4Zm4.825-6.058-5.633-2.449.487-1.078a3.071,3.071,0,0,1,5.633,2.446Z" transform="translate(130.978 -218.769)" fill="#efeaf1"/>
    <g id="Group_15142" data-name="Group 15142" transform="translate(-9.364 -23.188)">
      <path id="Path_35034" data-name="Path 35034" d="M426.1,153.2a2.5,2.5,0,1,1-2.5-2.5A2.5,2.5,0,0,1,426.1,153.2Z" transform="translate(-236.383 -76.961)" fill="#efeaf1"/>
      <circle id="Ellipse_1624" data-name="Ellipse 1624" cx="2.755" cy="2.755" r="2.755" transform="translate(191.465 72.178) rotate(-63.15)" fill="#efeaf1"/>
      <ellipse id="Ellipse_1625" data-name="Ellipse 1625" cx="2.755" cy="2.998" rx="2.755" ry="2.998" transform="translate(192.437 79.651) rotate(-0.08)" fill="#efeaf1"/>
      <path id="Path_35035" data-name="Path 35035" d="M433.788,164.44c-.12.174-1.951-.865-4.091-2.318s-3.782-2.778-3.666-2.952,1.932.869,4.091,2.318S433.9,164.266,433.788,164.44Z" transform="translate(-239.406 -82.147)" fill="#efeaf1"/>
      <path id="Path_35036" data-name="Path 35036" d="M435.9,142.977c.127.166-1.286,1.476-3.16,2.928s-3.477,2.492-3.624,2.318,1.286-1.476,3.16-2.925S435.77,142.826,435.9,142.977Z" transform="translate(-241.294 -72.212)" fill="#efeaf1"/>
    </g>
    <g id="freepik--Table--inject-4" transform="translate(41.239 198.815)">
      <path id="Path_35037" data-name="Path 35037" d="M204.471,474.55c0,.054-34.647.1-77.372.1s-77.379-.046-77.379-.1,34.639-.1,77.379-.1S204.471,474.492,204.471,474.55Z" transform="translate(-49.72 -474.45)" fill="#263238"/>
    </g>
    <g id="freepik--Signal--inject-4" transform="translate(154.125 62.459) rotate(45)">
      <path id="Path_35054" data-name="Path 35054" d="M411.755,94.444a1.742,1.742,0,1,1-.5-1.237A1.742,1.742,0,0,1,411.755,94.444Z" transform="translate(-398.903 -78.364)" fill="#efeaf1"/>
      <path id="Path_35055" data-name="Path 35055" d="M401.127,85.879a4.825,4.825,0,0,1,6.989-.093A.983.983,0,0,0,409.51,84.4a6.815,6.815,0,0,0-9.763.081C398.874,85.4,400.253,86.8,401.127,85.879Z" transform="translate(-393.502 -72.04)" fill="#efeaf1"/>
      <path id="Path_35056" data-name="Path 35056" d="M385.726,61.331a14.253,14.253,0,0,1,9.361-3.744,13.885,13.885,0,0,1,9.55,3.655c.919.862,2.318-.514,1.391-1.383a15.94,15.94,0,0,0-10.933-4.25,16.322,16.322,0,0,0-10.748,4.312c-.958.827.429,2.218,1.379,1.395Z" transform="translate(-384.024 -55.609)" fill="#efeaf1"/>
      <path id="Path_35057" data-name="Path 35057" d="M391.877,73.883a9.6,9.6,0,0,1,14.109-.2c.881.9,2.272-.475,1.391-1.379a11.548,11.548,0,0,0-16.867.185c-.858.927.518,2.318,1.379,1.395Z" transform="translate(-387.837 -63.664)" fill="#efeaf1"/>
    </g>
    <g id="freepik--GPS--inject-4" transform="translate(56.349 90.828)">
      <path id="Path_35058" data-name="Path 35058" d="M52.126,251.859a8.113,8.113,0,1,0-15.113,4.1h0l.023.031c.313.525.7.9,1.1,1.453l4.713,6.243a1.464,1.464,0,0,0,2.337,0l4.636-6.143A18.245,18.245,0,0,0,50.979,256v-.023h0A8.055,8.055,0,0,0,52.126,251.859Zm-8.113,3.535a3.574,3.574,0,1,1,2.526-1.045,3.574,3.574,0,0,1-2.526,1.045Z" transform="translate(-35.9 -243.744)" fill="#efeaf1"/>
    </g>
    <g id="freepik--Character--inject-4" transform="translate(51.654 71.212)">
      <path id="Path_35063" data-name="Path 35063" d="M79.25,403.331s2.592,1.677,3.79,1.619,5.907-5.9,5.907-5.9L86.494,397.2l-6.042,1-1.194,5.076" transform="translate(-78.256 -299.441)" fill="#263238"/>
      <path id="Path_35064" data-name="Path 35064" d="M194.312,191.46a12.031,12.031,0,0,1-2.731,11.165c-1.24,1.337-2.82,2.43-3.6,4.076-.869,1.824-.587,3.968-.974,5.953s-2.071,4.1-4,3.616a18.036,18.036,0,0,0,7.6,6.035,53.86,53.86,0,0,0,9.361,2.944c1.769.437,3.678.869,5.37.189,2.191-.877,3.28-3.284,4.157-5.474l7.642-19.089" transform="translate(-141.924 -173.186)" fill="#263238"/>
      <path id="Path_35065" data-name="Path 35065" d="M238.615,157.4A2.859,2.859,0,0,0,236,154.559l-13.472-6.181c-4.864-.41-9.72,8.295-9.921,13.17a80.965,80.965,0,0,0,1.205,15.952c1.46,8.09,6.919,8.244,6.919,8.244l.464,13.089L238.1,198.8Z" transform="translate(-160.064 -146.739)" fill="#b5715a"/>
      <path id="Path_35066" data-name="Path 35066" d="M221.85,197.709a1.043,1.043,0,0,0,1.028,1.028,1,1,0,0,0,1.051-.962,1.039,1.039,0,0,0-1.024-1.028.993.993,0,0,0-1.055.962Z" transform="translate(-165.765 -176.429)" fill="#263238"/>
      <path id="Path_35067" data-name="Path 35067" d="M218.379,191.684c.112.1.931-.035,2.024.209s1.847.707,1.978.665c.062-.019-.046-.174-.386-.386a5.069,5.069,0,0,0-1.572-.618,4.489,4.489,0,0,0-1.623-.077C218.452,191.538,218.321,191.653,218.379,191.684Z" transform="translate(-163.627 -173.17)" fill="#263238"/>
      <path id="Path_35068" data-name="Path 35068" d="M249.19,196.31a1.043,1.043,0,0,0,1.028,1.032,1,1,0,0,0,1.051-.962,1.043,1.043,0,0,0-1.024-1.032,1,1,0,0,0-1.055.962Z" transform="translate(-182.542 -175.57)" fill="#263238"/>
      <path id="Path_35069" data-name="Path 35069" d="M245.17,191.357c.162.039.869-.529,2.036-.869s2.136-.274,2.237-.386c.05-.054-.135-.151-.56-.185a5.212,5.212,0,0,0-1.824.216,4.636,4.636,0,0,0-1.588.773C245.166,191.171,245.085,191.345,245.17,191.357Z" transform="translate(-180.056 -172.232)" fill="#263238"/>
      <path id="Path_35070" data-name="Path 35070" d="M230.444,198.154a7.328,7.328,0,0,0-1.827-.29c-.286-.023-.556-.073-.61-.27a1.472,1.472,0,0,1,.174-.85c.255-.7.522-1.429.8-2.2a37.033,37.033,0,0,0,1.777-5.737,37.279,37.279,0,0,0-2.237,5.583c-.263.773-.518,1.507-.773,2.206a1.65,1.65,0,0,0-.124,1.128.719.719,0,0,0,.5.429,1.931,1.931,0,0,0,.487.054A6.809,6.809,0,0,0,230.444,198.154Z" transform="translate(-169.278 -171.558)" fill="#263238"/>
      <path id="Path_35071" data-name="Path 35071" d="M233.7,240.389a20.661,20.661,0,0,0,10.817-3.129s-2.384,5.973-10.52,5.386Z" transform="translate(-173.037 -201.291)" fill="#884c3b"/>
      <path id="Path_35072" data-name="Path 35072" d="M235.383,217.7a3,3,0,0,1,2.121-1.472,1.279,1.279,0,0,1,1.279.676,2.024,2.024,0,0,1-.139,1.866,1.711,1.711,0,0,1-1.677.858,2.867,2.867,0,0,1-1.422-.877.993.993,0,0,1-.294-.386.672.672,0,0,1,.073-.587" transform="translate(-173.967 -188.379)" fill="#884c3b"/>
      <path id="Path_35073" data-name="Path 35073" d="M238.04,214.84c-.185,0-.162,1.209-1.182,2.094s-2.318.773-2.318.95c0,.077.294.228.842.232a3.029,3.029,0,0,0,1.932-.722,2.65,2.65,0,0,0,.912-1.754C238.264,215.13,238.121,214.832,238.04,214.84Z" transform="translate(-173.552 -187.533)" fill="#263238"/>
      <path id="Path_35074" data-name="Path 35074" d="M242.983,178.079c.147.29,1.24,0,2.561,0s2.422.224,2.565-.07c.058-.139-.158-.386-.618-.641a4.447,4.447,0,0,0-3.906.046C243.134,177.674,242.922,177.94,242.983,178.079Z" transform="translate(-178.727 -164.275)" fill="#263238"/>
      <path id="Path_35075" data-name="Path 35075" d="M215.711,186.6c.251.251,1.205-.039,2.357-.081s2.133.12,2.353-.155c.093-.131-.066-.386-.5-.61a3.863,3.863,0,0,0-1.932-.386,3.809,3.809,0,0,0-1.866.56C215.731,186.215,215.6,186.481,215.711,186.6Z" transform="translate(-161.975 -169.443)" fill="#263238"/>
      <path id="Path_35076" data-name="Path 35076" d="M259.552,174.869c-.7-3.6-2.886-15.137-6.108-21.152s-6.9-8.391-10.481-9.272a8.183,8.183,0,0,0-7.789,1.97c-1.572,1.476-2.024,5.671-2.024,5.671s8.627,1.7,11.629,6.529a41.592,41.592,0,0,1,4.323,8.349l1.159,3.048s.912,14.839.61,17.771l12.958,4.679C261.047,186.741,260.255,178.481,259.552,174.869Z" transform="translate(-172.699 -144.158)" fill="#263238"/>
      <path id="Path_35077" data-name="Path 35077" d="M219.792,153.359s-5.687-.294-7.371,5.289c-.773,2.527-.85,9.871-.85,9.871a47.112,47.112,0,0,1-1.032-9.11,15.937,15.937,0,0,1,4.188-9.828c2.391-2.291,4.431-3.388,8.808-3.226,0,0-.626,1.244-1.7,2.928C221.291,150.13,220.441,150.222,219.792,153.359Z" transform="translate(-158.812 -145.497)" fill="#263238"/>
      <path id="Path_35078" data-name="Path 35078" d="M274.114,200.392a2.462,2.462,0,0,1,3.554-2.179c.865.471,1.545,1.449,1.511,3.361-.089,5.088-5.181,3.948-5.189,3.8C273.994,205.3,274.06,202.5,274.114,200.392Z" transform="translate(-197.761 -177.157)" fill="#b5715a"/>
      <path id="Path_35079" data-name="Path 35079" d="M278.094,205.942c.023,0,.089.066.24.135a.889.889,0,0,0,.661.027,2.193,2.193,0,0,0,1.051-1.932,2.944,2.944,0,0,0-.228-1.275,1.012,1.012,0,0,0-.653-.692.448.448,0,0,0-.529.232c-.07.143-.039.243-.066.251s-.108-.085-.062-.294a.541.541,0,0,1,.2-.317.672.672,0,0,1,.491-.12,1.244,1.244,0,0,1,.916.8,3.04,3.04,0,0,1,.282,1.426,2.307,2.307,0,0,1-1.333,2.175.95.95,0,0,1-.807-.151C278.1,206.065,278.078,205.95,278.094,205.942Z" transform="translate(-200.277 -179.624)" fill="#884c3b"/>
      <path id="Path_35080" data-name="Path 35080" d="M239.173,144.49c0,.039-.58.162-1.46.552a6.923,6.923,0,0,0-2.859,2.349,12.864,12.864,0,0,0-1.646,3.365c-.309.916-.464,1.5-.5,1.487a1.847,1.847,0,0,1,.07-.417c.054-.267.158-.645.294-1.113a11.621,11.621,0,0,1,1.619-3.442,6.954,6.954,0,0,1,1.468-1.514,6.827,6.827,0,0,1,1.5-.846,5.328,5.328,0,0,1,.622-.22,3.555,3.555,0,0,1,.479-.131A1.6,1.6,0,0,1,239.173,144.49Z" transform="translate(-172.429 -144.362)" fill="#455a64"/>
      <path id="Path_35081" data-name="Path 35081" d="M258.781,193.478a.464.464,0,0,1-.046-.108c-.031-.081-.066-.189-.116-.321a8.522,8.522,0,0,1-.332-1.275,17.158,17.158,0,0,1,0-4.821c.1-1.016.251-2.125.348-3.315a16.111,16.111,0,0,0-.073-3.794,11.412,11.412,0,0,0-1.429-3.914,16.225,16.225,0,0,0-2.8-3.516,32.3,32.3,0,0,0-7.205-4.9c-2.357-1.283-4.536-2.388-6.259-3.477a44.9,44.9,0,0,1-3.944-2.785c-.448-.355-.773-.641-1.012-.835l-.259-.224c-.054-.054-.085-.081-.081-.085l.1.07c.07.054.158.12.267.209l1.039.8c.9.688,2.237,1.657,3.972,2.728s3.887,2.179,6.27,3.442a31.154,31.154,0,0,1,7.255,4.918,16.524,16.524,0,0,1,2.836,3.558,11.614,11.614,0,0,1,1.441,3.987,16.226,16.226,0,0,1,.054,3.836c-.1,1.2-.259,2.318-.386,3.311a17.914,17.914,0,0,0-.058,4.8,10.488,10.488,0,0,0,.294,1.275c.042.135.073.24.1.325a.7.7,0,0,1,.035.108Z" transform="translate(-174.184 -153.947)" fill="#455a64"/>
      <path id="Path_35082" data-name="Path 35082" d="M84.11,394.966a1.089,1.089,0,0,1,.3-.193,5.406,5.406,0,0,1,.908-.386,6.363,6.363,0,0,1,3.226-.174,6.464,6.464,0,0,1,2.894,1.433,5.41,5.41,0,0,1,.68.707c.147.185.212.294.2.3a10.718,10.718,0,0,0-.974-.9,6.637,6.637,0,0,0-5.984-1.236C84.574,394.746,84.125,395,84.11,394.966Z" transform="translate(-81.239 -297.527)" fill="#263238"/>
      <path id="Path_35083" data-name="Path 35083" d="M98.56,388.92a2.682,2.682,0,0,1,.707.522,7.213,7.213,0,0,1,2.133,3.6,2.758,2.758,0,0,1,.12.869,9.813,9.813,0,0,0-2.959-4.991Z" transform="translate(-90.106 -294.36)" fill="#263238"/>
      <path id="Path_35084" data-name="Path 35084" d="M174.92,435.233s4.1-19.977,12.8-23.841L222.2,410.38s11.393,7.63,13.217,24.965Z" transform="translate(-136.966 -307.529)" fill="#263238"/>
      <path id="Path_35085" data-name="Path 35085" d="M217.732,254.45a6.816,6.816,0,0,0,7.839,5.621c6.823-.773,9.492-4.586,9.492-4.586l9.481,3.04,1.491,18.339a80.992,80.992,0,0,0-8.886,33.94c-.077,1.982-.147,4.157-1.468,5.637a7.16,7.16,0,0,1-3.145,1.8,28.724,28.724,0,0,1-22.562-1.858s-2.9-31.378-2.542-32.267,5.1-27.287,5.1-27.287Z" transform="translate(-156.898 -211.84)" fill="#e0e0e0"/>
      <path id="Path_35086" data-name="Path 35086" d="M127.432,258.2s-6.027.425-7.642,1.232-22.744,27.314-23.567,27.72c-.672.336-13.247,12.023-18.436,23.335-1.024,2.229-1.816,5.409-.131,7.518,0,0,6.058-7.607,9.7-4.269l16.273-16.493,17-9.913Z" transform="translate(-76.678 -214.141)" fill="#5e2d77"/>
      <g id="Group_12011" data-name="Group 12011" transform="translate(56.916 43.645)" opacity="0.2">
        <path id="Path_35087" data-name="Path 35087" d="M224,309.347c7.155-13.815,7.155-33.835,3.744-52.217l-3.06,26.12Z" transform="translate(-224 -257.13)" fill="#0e1740"/>
      </g>
      <path id="Path_35088" data-name="Path 35088" d="M178.077,256.859l.537,22.408s2.144,24.826,2.558,24.826,1.615,8.747,0,12.649-6.861,9.152-6.861,9.152l6.595,7.132s6.181-9.825,8.074-16.149,7.132-15.875,7.939-33.646.475-35.11.475-35.11l-5.185,3.755-4.984.1Z" transform="translate(-136.591 -207.956)" fill="#5e2d77"/>
      <path id="Path_35089" data-name="Path 35089" d="M203.316,321.715a.663.663,0,0,1,.054-.212c.054-.139.1-.352.174-.618l.653-2.384c.549-2.075,1.325-5.084,2.044-8.851.359-1.881.7-3.956.939-6.181.112-1.12.2-2.283.224-3.477a21.7,21.7,0,0,0-.2-3.682,11.253,11.253,0,0,0-.444-1.854,19.273,19.273,0,0,0-.661-1.851l-.386-.927-.417-.919c-.27-.618-.58-1.229-.885-1.847-1.236-2.461-2.681-4.93-4.25-7.4-1.352-2.136-2.739-4.2-4.145-6.143l-.054-.077.073-.058,10.087-8.279.066.155L197.3,268.13l-.178.019.112-.139c2.538-3.091,4.6-5.625,6.023-7.375l1.642-2,.433-.518c.1-.116.155-.17.155-.17l-.139.185-.413.529-1.619,1.982-5.969,7.418-.066-.116,8.886-1.055.3-.035-.232.189-10.076,8.306.019-.135c1.41,1.951,2.8,4.01,4.153,6.15,1.545,2.476,3.013,4.949,4.25,7.425.309.618.618,1.229.889,1.854l.417.923.386.931c.263.614.456,1.244.664,1.862a11.7,11.7,0,0,1,.444,1.885,21.681,21.681,0,0,1,.193,3.713c-.027,1.205-.116,2.372-.232,3.5-.243,2.248-.595,4.323-.962,6.208-.742,3.771-1.545,6.776-2.109,8.847-.29,1.031-.525,1.831-.692,2.372-.085.263-.147.467-.193.614S203.316,321.715,203.316,321.715Z" transform="translate(-149.877 -213.988)" fill="#263238"/>
      <path id="Path_35090" data-name="Path 35090" d="M269.29,242.89s3.338,5.146,3.686,5.5c0,0,14.1,3.991,14.936,5.671,3.431,6.931.661,9.423,0,18.95-.823,11.841-4.787,28.322-4.787,28.322s5.579,21.5,6.181,22.686-18.988,8.391-21.067,5.679-3.7-12.054-3.7-12.054-1.932-18.981-1.186-26.541,4.25-15.334,5.486-24.467C270.094,256.987,269.29,242.89,269.29,242.89Z" transform="translate(-191.126 -204.746)" fill="#5e2d77"/>
      <path id="Path_35091" data-name="Path 35091" d="M265.45,343.745a1.334,1.334,0,0,1,.042-.278c.042-.2.1-.46.162-.773s.17-.773.274-1.24.321-1.012.51-1.6a38.178,38.178,0,0,1,4.373-8.666,55.629,55.629,0,0,1,6.127-7.545c.869-.892,1.6-1.584,2.125-2.048.259-.232.471-.386.614-.518a1.3,1.3,0,0,1,.232-.155s-1.159,1.012-2.867,2.816a60.138,60.138,0,0,0-6.062,7.561,40.4,40.4,0,0,0-4.412,8.584c-.193.587-.386,1.117-.533,1.588s-.22.885-.305,1.229-.151.58-.2.773a1.963,1.963,0,0,1-.081.274Z" transform="translate(-192.521 -252.63)" fill="#263238"/>
      <path id="Path_35092" data-name="Path 35092" d="M288.5,257.75a1.346,1.346,0,0,1,.143.263c.093.193.216.452.386.773.321.7.773,1.669,1.333,2.863q.421.912.912,1.978l.51,1.1c.17.386.363.773.506,1.182.618,1.654,1.3,3.477,2.013,5.366l1.6,4.3.039.1-.108.023-3.767.815.054-.116,1.893,4.157c.212.487.386.877.514,1.159l.128.309a.359.359,0,0,1,.035.108.447.447,0,0,1-.058-.1l-.151-.3-.552-1.14-1.955-4.13-.046-.093.1-.023,3.759-.838-.066.127-1.623-4.273c-.707-1.9-1.379-3.717-1.993-5.366-.143-.421-.332-.8-.5-1.186l-.495-1.1-.873-2c-.529-1.2-.966-2.183-1.275-2.882l-.336-.773A1.931,1.931,0,0,1,288.5,257.75Z" transform="translate(-206.665 -213.865)" fill="#263238"/>
      <path id="Path_35093" data-name="Path 35093" d="M312.53,336.865s7.213,7.213,10.922,6.8,8.554-8.449,8.554-11.231-3.477-20.715-3.477-20.715l1.441-6.749-13.522-.259-2.7,20.789Z" transform="translate(-221.412 -242.683)" fill="#5e2d77"/>
      <path id="Path_35094" data-name="Path 35094" d="M273.661,263.22a.666.666,0,0,1-.046.151l-.162.429-.27.7c-.12.27-.251.583-.406.931-.313.7-.722,1.545-1.236,2.5a34.436,34.436,0,0,1-1.932,3.149,37.3,37.3,0,0,1-6.4,7.155,32,32,0,0,1-4.6,3.338,18.653,18.653,0,0,1-5.656,2.268,12.9,12.9,0,0,1-6.081-.147,10.617,10.617,0,0,1-2.677-1.159,9.658,9.658,0,0,1-2.136-1.8,22.319,22.319,0,0,1-2.84-4.288c-.773-1.41-1.476-2.735-2.063-3.972a29.662,29.662,0,0,1-1.395-3.423,19.186,19.186,0,0,1-.68-2.7,12,12,0,0,1-.185-2.368,1.022,1.022,0,0,1,0,.158,3.08,3.08,0,0,0,.027.456,16.9,16.9,0,0,0,.22,1.742,19.582,19.582,0,0,0,.711,2.685,30.823,30.823,0,0,0,1.414,3.4c.595,1.229,1.306,2.546,2.082,3.952a22.176,22.176,0,0,0,2.828,4.25,9.574,9.574,0,0,0,2.1,1.758,10.461,10.461,0,0,0,2.631,1.128,12.749,12.749,0,0,0,5.984.139,18.622,18.622,0,0,0,5.6-2.241,32.311,32.311,0,0,0,4.578-3.307,37.65,37.65,0,0,0,6.4-7.1c.773-1.12,1.414-2.183,1.955-3.122s.939-1.789,1.263-2.48c.158-.348.3-.657.421-.923l.286-.688.182-.421A.724.724,0,0,1,273.661,263.22Z" transform="translate(-173.769 -217.222)" fill="#263238"/>
      <path id="Path_35095" data-name="Path 35095" d="M297.866,259.971a1.841,1.841,0,0,1-.228.251l-.672.688-2.519,2.5-3.72,3.709a15.317,15.317,0,0,1-2.442,1.932,7.2,7.2,0,0,1-3.153,1.124,5.532,5.532,0,0,1-3.28-.63,3.964,3.964,0,0,1-1.881-2.453,10.819,10.819,0,0,1-.317-2.809c0-.881.031-1.7.046-2.449a13.417,13.417,0,0,0-.247-3.508,5.184,5.184,0,0,0-.328-.9,3.046,3.046,0,0,1-.135-.309,1.752,1.752,0,0,1,.17.29,4.385,4.385,0,0,1,.367.9,12.791,12.791,0,0,1,.317,3.531c0,.749-.035,1.569-.023,2.445a10.819,10.819,0,0,0,.328,2.755,3.786,3.786,0,0,0,1.8,2.337,5.37,5.37,0,0,0,3.164.6,7.062,7.062,0,0,0,3.068-1.089,15.273,15.273,0,0,0,2.418-1.909c.719-.672,1.36-1.364,2-1.966s1.221-1.182,1.758-1.7l2.558-2.457.7-.661A2.752,2.752,0,0,1,297.866,259.971Z" transform="translate(-200.829 -213.479)" fill="#263238"/>
      <path id="Path_35096" data-name="Path 35096" d="M189.337,334.437a.387.387,0,0,1-.023-.1l-.046-.313c-.035-.29-.085-.7-.151-1.205-.131-1.066-.317-2.577-.545-4.439-.456-3.747-1.1-8.928-1.708-14.658-.305-2.867-.56-5.6-.773-8.09s-.348-4.733-.429-6.622c-.054-.943-.081-1.8-.1-2.546s-.043-1.395-.043-1.932V293a.562.562,0,0,1,0-.108.362.362,0,0,1,0,.1,1.992,1.992,0,0,0,.019.317q0,.44.046,1.217c0,.525.039,1.159.077,1.932s.073,1.6.131,2.542c.1,1.885.274,4.126.475,6.614s.475,5.219.773,8.086c.61,5.726,1.232,10.906,1.65,14.658.2,1.866.386,3.384.483,4.447.05.514.089.919.116,1.213a1.707,1.707,0,0,0,.023.313A.324.324,0,0,1,189.337,334.437Z" transform="translate(-143.466 -235.429)" fill="#263238"/>
      <path id="Path_35097" data-name="Path 35097" d="M331.421,304.809h-.989l-2.774-.027-9.774-.147.093-.073c-.549,2.9-.993,6.208-1.337,9.7-.61,6.417-.865,12.251-1.178,16.466-.151,2.109-.294,3.813-.386,4.988-.058.579-.108,1.032-.139,1.356-.019.143-.031.259-.042.352a.592.592,0,0,1-.019.116.459.459,0,0,1,0-.12,2.5,2.5,0,0,1,.019-.352c.027-.325.062-.773.1-1.356.089-1.159.209-2.886.34-4.991.278-4.215.51-10.045,1.124-16.477.34-3.5.792-6.815,1.356-9.72v-.077h.077l9.77.22,2.778.077.734.027h.189C331.4,304.8,331.421,304.805,331.421,304.809Z" transform="translate(-222.848 -242.523)" fill="#263238"/>
      <circle id="Ellipse_1626" data-name="Ellipse 1626" cx="1.059" cy="1.059" r="1.059" transform="translate(104.211 65.067)" fill="#e0e0e0"/>
      <path id="Path_35098" data-name="Path 35098" d="M348.394,313.5a2.312,2.312,0,0,1-.07-.251,1.074,1.074,0,0,0-.386-.537.993.993,0,0,0-.927-.12.97.97,0,0,0,0,1.816.993.993,0,0,0,.927-.124,1.058,1.058,0,0,0,.386-.537,2.072,2.072,0,0,1,.07-.247.529.529,0,0,1,0,.267,1.093,1.093,0,0,1-.386.634,1.124,1.124,0,0,1-1.078.182,1.159,1.159,0,0,1,0-2.163,1.124,1.124,0,0,1,1.078.182,1.074,1.074,0,0,1,.386.63C348.433,313.4,348.406,313.5,348.394,313.5Z" transform="translate(-242.066 -247.373)" fill="#263238"/>
      <circle id="Ellipse_1627" data-name="Ellipse 1627" cx="1.059" cy="1.059" r="1.059" transform="translate(74.123 97.651)" fill="#e0e0e0"/>
      <path id="Path_35099" data-name="Path 35099" d="M270.492,397.842s-.023-.093-.073-.247a1.074,1.074,0,0,0-.386-.537.974.974,0,1,0,0,1.572,1.074,1.074,0,0,0,.386-.537c.05-.155.054-.251.073-.251a.514.514,0,0,1,0,.27,1.055,1.055,0,0,1-.386.63,1.12,1.12,0,0,1-1.074.185,1.159,1.159,0,0,1,0-2.167,1.12,1.12,0,0,1,1.074.185,1.055,1.055,0,0,1,.386.63A.487.487,0,0,1,270.492,397.842Z" transform="translate(-194.26 -299.132)" fill="#263238"/>
      <path id="Path_35100" data-name="Path 35100" d="M276.315,439.722a1.062,1.062,0,1,1-1.062-1.062A1.062,1.062,0,0,1,276.315,439.722Z" transform="translate(-197.884 -324.883)" fill="#e0e0e0"/>
      <path id="Path_35101" data-name="Path 35101" d="M276.176,439.586c-.019,0-.023-.1-.073-.251a1.051,1.051,0,0,0-.386-.537.977.977,0,1,0-.927,1.7.993.993,0,0,0,.927-.124,1.036,1.036,0,0,0,.386-.537c.05-.155.054-.251.073-.247a.487.487,0,0,1,0,.267,1.043,1.043,0,0,1-.386.63,1.128,1.128,0,0,1-1.078.185,1.159,1.159,0,0,1,0-2.167,1.128,1.128,0,0,1,1.078.185,1.043,1.043,0,0,1,.386.63A.514.514,0,0,1,276.176,439.586Z" transform="translate(-197.745 -324.746)" fill="#263238"/>
      <path id="Path_35102" data-name="Path 35102" d="M334.363,321.919c0,.058-2.774-.027-6.181-.182s-6.181-.328-6.181-.386,2.774.027,6.181.185S334.363,321.865,334.363,321.919Z" transform="translate(-227.223 -252.884)" fill="#263238"/>
      <path id="Path_35103" data-name="Path 35103" d="M138.24,327.671l-3.987,1.592-8.673-21.7a9.984,9.984,0,0,0-18.544,7.406l8.673,21.7-3.987,1.6-8.677-21.7a14.272,14.272,0,0,1,26.507-10.593Z" transform="translate(-92.231 -237.944)" fill="#e0e0e0"/>
      <path id="Path_35104" data-name="Path 35104" d="M138.2,327.542l-.178-.433-.506-1.271-1.932-4.821c-.842-2.094-1.874-4.636-3.068-7.619q-.9-2.225-1.908-4.752a31.492,31.492,0,0,0-2.376-5.2,13.908,13.908,0,0,0-4.462-4.362c-.236-.143-.467-.29-.707-.425l-.749-.367a13.9,13.9,0,0,0-1.545-.63c-.267-.1-.549-.155-.823-.236a5.644,5.644,0,0,0-.838-.2,13.636,13.636,0,0,0-1.739-.232,14.68,14.68,0,0,0-3.577.17l-.892.209-.448.1-.44.147-.881.305c-.29.112-.568.255-.854.386a14.147,14.147,0,0,0-7.576,16.81c.425,1.344,1,2.67,1.545,4.018l6.664,16.674.912,2.276-.131-.054,3.987-1.6-.054.131c-1.727-4.315-3.411-8.542-5.053-12.645l-2.418-6.065-1.182-2.955a10.922,10.922,0,0,1-.707-3.068,10.13,10.13,0,0,1,1.418-5.872,6.777,6.777,0,0,1,.386-.634l.444-.595a11.037,11.037,0,0,1,2.171-1.966c.2-.139.413-.251.622-.386l.309-.182.328-.151a10.1,10.1,0,0,1,2.7-.858,10.637,10.637,0,0,1,2.755-.073,10.138,10.138,0,0,1,4.872,1.932,9.659,9.659,0,0,1,3.118,3.809c.081.182.166.363.247.541s.147.367.216.549l.433,1.078q.421,1.074.834,2.1l3,7.53c1.8,4.543,3.21,8.113,4.149,10.462l-.039-.019,3.013-1.186.738-.286.247-.093-.232.1c-.162.066-.386.162-.726.3l-3.017,1.221h-.027v-.027c-.95-2.357-2.376-5.9-4.2-10.431-.912-2.268-1.932-4.783-3.021-7.522l-.838-2.094c-.143-.355-.29-.715-.433-1.078l-.22-.549c-.081-.178-.162-.355-.247-.533A10.087,10.087,0,0,0,124,304.872a10.389,10.389,0,0,0-1.808-1.7,10.045,10.045,0,0,0-4.8-1.881,10.593,10.593,0,0,0-2.7.077,10.02,10.02,0,0,0-2.646.846l-.321.147-.305.182c-.2.124-.413.236-.61.367a10.747,10.747,0,0,0-1.124.892,10.271,10.271,0,0,0-1,1.043l-.437.587a5.479,5.479,0,0,0-.386.618,9.971,9.971,0,0,0-1.387,5.768,10.887,10.887,0,0,0,.7,3.01c.386.977.773,1.966,1.186,2.959l2.422,6.062,5.057,12.645.039.093-.093.039c-1.3.514-2.631,1.051-3.987,1.592l-.1.039-.035-.093-.912-2.279c-2.283-5.71-4.509-11.289-6.66-16.674-.529-1.352-1.1-2.662-1.545-4.037a15.276,15.276,0,0,1-.579-4.2,15.511,15.511,0,0,1,.653-4.1,15.229,15.229,0,0,1,1.742-3.666,14.244,14.244,0,0,1,5.853-5.057c.294-.128.576-.27.869-.386l.889-.305c.151-.046.3-.1.444-.147l.456-.1.9-.209a14.681,14.681,0,0,1,3.624-.17,13.294,13.294,0,0,1,1.754.24,8,8,0,0,1,.85.2c.278.085.564.139.831.24a15.419,15.419,0,0,1,1.584.641l.773.386c.24.135.475.29.711.429a14.07,14.07,0,0,1,4.5,4.42,31.628,31.628,0,0,1,2.376,5.246l1.9,4.775c1.182,2.979,2.2,5.544,3.033,7.642l1.9,4.822.495,1.252A3.584,3.584,0,0,0,138.2,327.542Z" transform="translate(-92.193 -237.815)" fill="#263238"/>
      <rect id="Rectangle_27096" data-name="Rectangle 27096" width="40.364" height="32.897" rx="10.01" transform="translate(9.969 88.394) rotate(-21.79)" fill="#00ae9f"/>
      <g id="Group_12012" data-name="Group 12012" transform="translate(9.969 73.411)" opacity="0.3">
        <rect id="Rectangle_27097" data-name="Rectangle 27097" width="40.364" height="32.897" rx="10.39" transform="translate(0 14.984) rotate(-21.79)"/>
      </g>
      <rect id="Rectangle_27098" data-name="Rectangle 27098" width="37.448" height="32.897" rx="9.98" transform="translate(8.262 89.076) rotate(-21.79)" fill="#00ae9f"/>
      <g id="Group_12013" data-name="Group 12013" transform="translate(26.634 89.871)" opacity="0.3">
        <path id="Path_35105" data-name="Path 35105" d="M154.485,379.69a4.594,4.594,0,1,0-3.8,6.255l2.082,5.216a1.256,1.256,0,0,0,1.63.7h0a1.252,1.252,0,0,0,.7-1.626l-2.086-5.216a4.582,4.582,0,0,0,1.472-5.324Z" transform="translate(-145.618 -376.782)"/>
      </g>
      <path id="Path_35106" data-name="Path 35106" d="M201.814,372.572c-.054.019-2.2-5.293-4.791-11.864s-4.659-11.919-4.605-11.938,2.194,5.293,4.791,11.864S201.864,372.553,201.814,372.572Z" transform="translate(-147.703 -269.721)" fill="#263238"/>
      <path id="Path_35107" data-name="Path 35107" d="M162.95,384.313a7.491,7.491,0,0,0,1.089-1.449,5.6,5.6,0,0,0,.618-1.851,5.023,5.023,0,0,0-1.41-4.385,5.567,5.567,0,0,0-1.576-1.159,7.791,7.791,0,0,0-1.731-.545,2.077,2.077,0,0,1,.495.031,4.741,4.741,0,0,1,1.294.386,5.521,5.521,0,0,1,1.65,1.159,5.111,5.111,0,0,1,1.46,4.547,5.409,5.409,0,0,1-.676,1.889,4.678,4.678,0,0,1-.831,1.066A1.931,1.931,0,0,1,162.95,384.313Z" transform="translate(-127.773 -285.769)" fill="#263238"/>
      <path id="Path_35108" data-name="Path 35108" d="M135.179,349.468c.019.05-4.617,2.024-10.358,4.408s-10.431,4.277-10.431,4.227,4.617-2.024,10.362-4.412S135.156,349.418,135.179,349.468Z" transform="translate(-99.821 -270.149)" fill="#fff"/>
      <path id="Path_35109" data-name="Path 35109" d="M145.246,386.994a1.158,1.158,0,0,1-.286-.2,4.446,4.446,0,0,1-.649-.676,5.134,5.134,0,0,1-.386-5.845,4.491,4.491,0,0,1,.56-.753,1.039,1.039,0,0,1,.255-.232c.031.027-.321.386-.692,1.055a5.289,5.289,0,0,0,.367,5.691C144.879,386.665,145.269,386.963,145.246,386.994Z" transform="translate(-117.495 -288.45)" fill="#fff"/>
      <path id="Path_35110" data-name="Path 35110" d="M152.974,402.314c0,.058-.3.054-.653,0s-.634-.151-.622-.209.3-.05.653,0S152.974,402.26,152.974,402.314Z" transform="translate(-122.716 -302.426)" fill="#fff"/>
      <path id="Path_35111" data-name="Path 35111" d="M111.229,303a7.34,7.34,0,0,1-.676.386,13.154,13.154,0,0,0-1.742,1.2,12.583,12.583,0,0,0-3.647,14.507c.189.464.309.715.294.722a.876.876,0,0,1-.1-.174c-.062-.116-.162-.286-.263-.518a11.374,11.374,0,0,1-.7-2.017,12.17,12.17,0,0,1,4.346-12.641,11.386,11.386,0,0,1,1.793-1.159c.224-.12.406-.193.525-.247A.98.98,0,0,1,111.229,303Z" transform="translate(-93.449 -241.634)" fill="#fff"/>
      <path id="Path_35112" data-name="Path 35112" d="M109.435,352.977a3.747,3.747,0,0,1-.525-1.078,3.662,3.662,0,0,1-.34-1.159,3.527,3.527,0,0,1,.525,1.078A3.69,3.69,0,0,1,109.435,352.977Z" transform="translate(-96.249 -270.93)" fill="#fff"/>
      <g id="Group_12014" data-name="Group 12014" transform="translate(41.154 59.218)" opacity="0.3">
        <path id="Path_35113" data-name="Path 35113" d="M184.14,297.44c-1.735,4.964-.877,10.547,1.055,15.453C185.195,312.878,184.187,302.636,184.14,297.44Z" transform="translate(-183.202 -297.44)" fill="#0e1740"/>
      </g>
      <g id="Group_12015" data-name="Group 12015" transform="translate(72.443 61.903)" opacity="0.3">
        <path id="Path_35114" data-name="Path 35114" d="M264.213,337.947a107.261,107.261,0,0,1,6.293-12.683,37.749,37.749,0,0,1,9.176-10.69c1.02-.773,2.925-2.21,2.925-2.21s-.51-.966-1.012-1.766c-.579-.927-1.545-2.534-2.055-3.326l2.26.452s-1.545-3.562-1.5-3.323a30.034,30.034,0,0,1-3.064.63c.792,1.893,1.634,3.6,2.426,5.5a50.171,50.171,0,0,0-10.64,12.131c-2.913,4.5-4.93,9.716-4.825,15.067" transform="translate(-264.19 -304.39)" fill="#0e1740"/>
      </g>
      <path id="Path_35115" data-name="Path 35115" d="M280.671,214.779c.05-.042.17,0,.305.151a1.252,1.252,0,0,1,.263.819,1.511,1.511,0,0,1-.131.618,1.58,1.58,0,0,1-.475.6,1.719,1.719,0,0,1-2.758-1.047,1.545,1.545,0,0,1,.352-1.314,1.263,1.263,0,0,1,.738-.437c.2-.027.317.023.332.089.031.139-.3.317-.483.749a.947.947,0,0,0-.039.7.885.885,0,0,0,1.325.5.935.935,0,0,0,.437-.545C280.683,215.215,280.551,214.871,280.671,214.779Z" transform="translate(-200.127 -187.116)" fill="#e0e0e0"/>
      <path id="Path_35116" data-name="Path 35116" d="M104.57,429.48s1.317,4.25,2,5.1,5.227,1.314,5.227,1.314Z" transform="translate(-93.794 -319.25)" fill="#b5715a"/>
      <path id="Path_35117" data-name="Path 35117" d="M111,411.994l2.523,2.024,7.487,5.772s-.046,1.391-1.731,1.074a23.579,23.579,0,0,1-4.4-1.932s3.562,3.346,3.686,4.91v.286a1.325,1.325,0,0,1-.386.923h0l-4.161-2.778s.892,1.569,1.769,3.2a2,2,0,0,1-.286,1.986h0l-9.272-7.777-.058-5.8,4.81-1.893" transform="translate(-94.776 -308.517)" fill="#b5715a"/>
      <path id="Path_35118" data-name="Path 35118" d="M116.12,421.4a1.16,1.16,0,0,1,.348.077c.108.039.236.1.386.162s.305.162.483.263c.7.417,1.6,1.093,2.585,1.835a22.819,22.819,0,0,0,2.608,1.754c.707.386,1.186.533,1.159.568a1.159,1.159,0,0,1-.344-.077,3.266,3.266,0,0,1-.386-.139,4.853,4.853,0,0,1-.5-.224,17.657,17.657,0,0,1-2.67-1.719c-.989-.746-1.862-1.437-2.538-1.878l-.46-.282-.363-.189a1.376,1.376,0,0,1-.305-.151Z" transform="translate(-100.882 -314.291)" fill="#884c3b"/>
      <path id="Path_35119" data-name="Path 35119" d="M113.92,428.71a4.307,4.307,0,0,1,.8.5c.475.328,1.117.807,1.8,1.364s1.283,1.086,1.7,1.484a4.009,4.009,0,0,1,.645.676,4.462,4.462,0,0,1-.742-.568l-1.735-1.437-1.758-1.406A4.675,4.675,0,0,1,113.92,428.71Z" transform="translate(-99.532 -318.777)" fill="#884c3b"/>
      <path id="Path_35120" data-name="Path 35120" d="M81.515,403.787c-.066.073.031.212.093.344,1.008,2.106,9.658,8.086,9.658,8.086l4.717-8.04s3.427,1.657,4.833,1.275c1.159-.317,3.338-.552,2.318-2.585a48.562,48.562,0,0,1-6.475-1.6c-1.642-.707-2.67-1.074-2.67-1.074a22.947,22.947,0,0,1-5.579-.552S85.521,399.24,81.515,403.787Z" transform="translate(-79.633 -300.936)" fill="#b5715a"/>
      <path id="Path_35121" data-name="Path 35121" d="M118.207,441.877a10.185,10.185,0,0,1-1.093-.85c-.711-.576-1.607-1.306-2.6-2.109s-1.932-1.588-2.565-2.16c-.321-.282-.576-.518-.749-.684a1.436,1.436,0,0,1-.255-.274,9.953,9.953,0,0,1,1.1.85l2.6,2.109c1.016.827,1.932,1.588,2.565,2.16.321.282.579.518.749.684A1.438,1.438,0,0,1,118.207,441.877Z" transform="translate(-97.703 -323.128)" fill="#884c3b"/>
      <path id="Path_35122" data-name="Path 35122" d="M329.231,220.043l2.979.467.359-2.276-1.159-.182.162-1.035-1.074-.17.143-.908,1.24.193.124-.773-1.986-.313.046-.3-.046.3h0l.046-.3a.715.715,0,0,0-.645-.773.73.73,0,0,0-.773.645q-.865,5.525-1.735,11.038l-.464,2.944a3.863,3.863,0,1,0,1.395.22q.672-4.25,1.341-8.5h0ZM329.4,232.9a2.87,2.87,0,1,1-2.391-3.284h0a2.874,2.874,0,0,1,2.391,3.3Z" transform="translate(-227.647 -187.003)" fill="#e0e0e0"/>
      <path id="Path_35123" data-name="Path 35123" d="M329.231,220.043l2.979.467.359-2.276-1.159-.182.162-1.035-1.074-.17.143-.908,1.24.193.124-.773-1.986-.313.046-.3-.046.3h0l.046-.3a.715.715,0,0,0-.645-.773.73.73,0,0,0-.773.645q-.865,5.525-1.735,11.038l-.464,2.944a3.863,3.863,0,1,0,1.395.22q.672-4.25,1.341-8.5h0ZM329.4,232.9a2.87,2.87,0,1,1-2.391-3.284h0a2.874,2.874,0,0,1,2.391,3.3Z" transform="translate(-227.647 -187.003)" fill="none"/>
      <path id="Path_35124" data-name="Path 35124" d="M330.858,257.465a3.808,3.808,0,0,0-.128-1.213,2.758,2.758,0,0,0-.707-1.182,2.789,2.789,0,0,0-1.569-.8l.05-.166h0l.6.263-.649-.1a2.778,2.778,0,0,0-2.89,4.022,2.7,2.7,0,0,0,1.12,1.159,2.793,2.793,0,0,0,2.666.035,2.893,2.893,0,0,0,1.275-1.352,6.564,6.564,0,0,0,.232-.664.646.646,0,0,1,0,.182,2.48,2.48,0,0,1-.143.514,2.874,2.874,0,0,1-1.279,1.445,2.952,2.952,0,1,1-.943-5.509l-.05.166h0l-.626-.286.676.12a2.929,2.929,0,0,1,1.646.873,2.863,2.863,0,0,1,.7,1.256,2.928,2.928,0,0,1,.085.919A1.442,1.442,0,0,1,330.858,257.465Z" transform="translate(-229.108 -211.552)" fill="#263238"/>
      <path id="Path_35125" data-name="Path 35125" d="M329.134,219.886a1.907,1.907,0,0,1-.031.278h0c-.108.838-.576,3.925-1.283,8.5l-.043-.077a3.883,3.883,0,1,1-1.851-.216c.143-.023.286-.027.425-.039l-.1.085c.495-3.122.97-6.131,1.414-8.951.224-1.41.44-2.774.649-4.08.05-.328.1-.649.155-.97a.815.815,0,0,1,.715-.692.8.8,0,0,1,.823.518.838.838,0,0,1,0,.494v.143h0l-.166-.023v-.077l.039-.224.162.027-.046.3-.07-.093,1.986.317h.077v.077c-.046.278-.085.533-.127.773v.073h-.073l-1.24-.2.081-.058c-.054.328-.1.622-.147.908l-.058-.077,1.078.174h.062v.066c-.062.386-.116.711-.17,1.032l-.05-.07,1.159.189h.054v.054q-.216,1.3-.386,2.276v.042h-.043l-2.2-.386-.576-.1-.2-.039h.185l.568.081,2.233.325-.05.035c.1-.653.212-1.41.344-2.276l.046.062-1.159-.174h-.058v-.058l.158-1.035.054.073-1.074-.166h-.07v-.066c.042-.29.089-.583.139-.912v-.07h.07l1.244.189-.089.062c.043-.251.081-.506.124-.773l.066.089-1.99-.309h-.081v-.081l.046-.3.162.027-.035.224v.077c-.332-.054-.089,0-.166-.031h0v-.139a.7.7,0,0,0,0-.41.622.622,0,0,0-.645-.406.637.637,0,0,0-.56.549l-.151.966-.637,4.084c-.44,2.82-.916,5.83-1.4,8.951v.077h-.085a1.617,1.617,0,0,0-.406.035,3.7,3.7,0,1,0,1.773.151l-.054-.019v-.058c.734-4.574,1.24-7.657,1.391-8.5h0A2.053,2.053,0,0,0,329.134,219.886Z" transform="translate(-227.55 -186.846)" fill="#263238"/>
      <path id="Path_35126" data-name="Path 35126" d="M322.419,256.666l4.775-1.256,2.48.317a1.348,1.348,0,0,1,1.047.773l1.607,3.5s2.318,1.932,2.051,3.091-2.418,11.559-2.418,11.559l-6.4-.193a8.831,8.831,0,0,1-1.932-4.86c-.07-1.46.487-2.353.348-3.125a8.064,8.064,0,0,1,.386-2.2l.193-.7-.425.2a1.294,1.294,0,0,1-1.847-.97,1.1,1.1,0,0,1,0-.112h0a2.905,2.905,0,0,1,.869-2.225l2.415-2.372S322.9,259.617,322.419,256.666Z" transform="translate(-227.395 -212.429)" fill="#b5715a"/>
      <path id="Path_35127" data-name="Path 35127" d="M333.44,272.111a1.72,1.72,0,0,1-.444-.05l-1.186-.212-1.758-.34c-.328-.062-.676-.151-1.028-.182a1.1,1.1,0,0,0-.954.305,2.183,2.183,0,0,0-.386.989c-.077.359-.151.7-.22,1.035a11.217,11.217,0,0,0-.313,1.738,1.2,1.2,0,0,0,.46,1.008,1.26,1.26,0,0,0,.386.166.208.208,0,0,1-.116,0,.707.707,0,0,1-.321-.108A1.248,1.248,0,0,1,327,275.4a9.752,9.752,0,0,1,.27-1.781c.066-.332.135-.68.209-1.035a2.318,2.318,0,0,1,.448-1.086,1.286,1.286,0,0,1,1.12-.363,9.463,9.463,0,0,1,1.051.193l1.746.386,1.159.274A1.9,1.9,0,0,1,333.44,272.111Z" transform="translate(-230.291 -222.068)" fill="#884c3b"/>
      <path id="Path_35128" data-name="Path 35128" d="M332.007,280.551a.542.542,0,0,1-.243.386.869.869,0,0,1-.529.151,2.563,2.563,0,0,1-.7-.135,2.7,2.7,0,0,1-1.526-1.035,2.415,2.415,0,0,1-.031-2.237,4.276,4.276,0,0,1,.595-1.024,1.159,1.159,0,0,1,.483-.344,1.229,1.229,0,0,1,.564-.039,8.614,8.614,0,0,1,1.754.56,9.138,9.138,0,0,1,1.1.556,1.547,1.547,0,0,1,.386.259c0,.031-.564-.309-1.526-.684a9.571,9.571,0,0,0-1.723-.51,1.055,1.055,0,0,0-.479.039.966.966,0,0,0-.386.294,4.153,4.153,0,0,0-.556.97,2.256,2.256,0,0,0,0,2.059,2.616,2.616,0,0,0,1.41,1,2.7,2.7,0,0,0,.661.158.831.831,0,0,0,.483-.1.773.773,0,0,0,.263-.321Z" transform="translate(-231.346 -225.223)" fill="#884c3b"/>
      <path id="Path_35129" data-name="Path 35129" d="M334.128,284.06c0,.023-.112.089-.328.112a1.46,1.46,0,0,1-1.418-.734c-.1-.185-.12-.321-.1-.328a2.365,2.365,0,0,0,.792.726A3.091,3.091,0,0,0,334.128,284.06Z" transform="translate(-233.529 -229.428)" fill="#884c3b"/>
      <path id="Path_35130" data-name="Path 35130" d="M337.06,287c-.031.043-.332-.135-.549-.495s-.243-.711-.189-.715.162.286.359.61S337.1,286.953,337.06,287Z" transform="translate(-235.997 -231.072)" fill="#884c3b"/>
      <path id="Path_35131" data-name="Path 35131" d="M337.34,292.567a3.717,3.717,0,0,1,.112-3.477,6.69,6.69,0,0,0-.112,3.477Z" transform="translate(-236.405 -233.098)" fill="#884c3b"/>
      <path id="Path_35132" data-name="Path 35132" d="M333.641,289.9a4.532,4.532,0,0,0-2.511,2.453,1.105,1.105,0,0,1,.124-.533,3.338,3.338,0,0,1,.742-1.093,3.287,3.287,0,0,1,1.109-.715A1.066,1.066,0,0,1,333.641,289.9Z" transform="translate(-232.825 -233.592)" fill="#884c3b"/>
      <path id="Path_35133" data-name="Path 35133" d="M332.167,269.31c.058,0,.089.2.023.421s-.193.386-.243.348,0-.2.05-.386S332.113,269.306,332.167,269.31Z" transform="translate(-233.314 -220.959)" fill="#884c3b"/>
      <path id="Path_35134" data-name="Path 35134" d="M336.836,264.961a5.835,5.835,0,0,1-.954-.51c-.58-.332-1.368-.807-2.229-1.344a7.512,7.512,0,0,0-1.252-.653,2.84,2.84,0,0,0-1.113-.193,2.639,2.639,0,0,0-1.008.278.746.746,0,0,1,.228-.185,1.862,1.862,0,0,1,.773-.236,2.839,2.839,0,0,1,1.182.162,6.7,6.7,0,0,1,1.294.657c.865.533,1.642,1.028,2.2,1.395A6.115,6.115,0,0,1,336.836,264.961Z" transform="translate(-232.304 -216.54)" fill="#884c3b"/>
      <path id="Path_35135" data-name="Path 35135" d="M339.61,221.752a17.381,17.381,0,0,1,.286-2.612,16.463,16.463,0,0,1,.487-2.581,17.45,17.45,0,0,1-.286,2.612,17.139,17.139,0,0,1-.487,2.581Z" transform="translate(-238.03 -188.589)" fill="#263238"/>
      <g id="Group_12016" data-name="Group 12016" transform="translate(101.607 28.103)" opacity="0.3">
        <path id="Path_35136" data-name="Path 35136" d="M340.426,216.9a6.247,6.247,0,0,1-.746,4.806c.278-1.41.556-3.319.746-4.806" transform="translate(-339.68 -216.9)"/>
      </g>
    </g>
    <g id="freepik--Plant--inject-4" transform="translate(152.647 138.761)">
      <path id="Path_35137" data-name="Path 35137" d="M432.991,391.907a7.433,7.433,0,0,0-12.181,2.925l.881,3.407a4.186,4.186,0,0,1,2.163-2.762,5.172,5.172,0,0,1,3.674.216,13.2,13.2,0,0,0,3.6,1.078,2.925,2.925,0,0,0,3.044-1.715A3.283,3.283,0,0,0,432.991,391.907Z" transform="translate(-388.852 -362.466)" fill="#00ae9f"/>
      <g id="Group_12017" data-name="Group 12017" transform="translate(31.958 27.362)" opacity="0.3">
        <path id="Path_35138" data-name="Path 35138" d="M432.991,391.907a7.433,7.433,0,0,0-12.181,2.925l.881,3.407a4.186,4.186,0,0,1,2.163-2.762,5.172,5.172,0,0,1,3.674.216,13.2,13.2,0,0,0,3.6,1.078,2.925,2.925,0,0,0,3.044-1.715A3.283,3.283,0,0,0,432.991,391.907Z" transform="translate(-420.81 -389.828)"/>
      </g>
      <path id="Path_35139" data-name="Path 35139" d="M395.03,401.743c-1.839-1.746-1.746-4.791-.831-7.159a10.838,10.838,0,0,1,5.161-5.382,16.346,16.346,0,0,1,14.244-.464,6.765,6.765,0,0,0-5.467,3.21c-1.008,1.677-1.232,3.709-2.067,5.478a8.615,8.615,0,0,1-11.042,4.315" transform="translate(-372.131 -360.932)" fill="#00ae9f"/>
      <path id="Path_35140" data-name="Path 35140" d="M390.632,349.31c-2.036-2.407-2.318-6.266-2.009-9.407s1.028-6.293.533-9.407c-.294-1.847-1.008-3.608-1.248-5.459s.1-3.948,1.545-5.142c1.65-1.375,4.25-1.051,5.961.24a11.272,11.272,0,0,1,3.438,5.339,22.732,22.732,0,0,1,.869,13.889c-1.314,4.532-4.385,8.581-8.886,9.948" transform="translate(-368.619 -319.004)" fill="#00ae9f"/>
      <path id="Path_35141" data-name="Path 35141" d="M392.528,413.537a2.2,2.2,0,0,1,0-.278v-.8c.027-.688.093-1.688.247-2.913a38.475,38.475,0,0,1,.773-4.25,19.63,19.63,0,0,1,1.932-4.941,20.7,20.7,0,0,1,3.18-4.25A20.333,20.333,0,0,1,402,393.335c.506-.352,1-.618,1.426-.865s.811-.413,1.124-.564l.734-.309a1.246,1.246,0,0,1,.259-.1,2.185,2.185,0,0,1-.247.127l-.719.336c-.305.158-.68.355-1.109.587a13.988,13.988,0,0,0-1.4.885,20.882,20.882,0,0,0-6.436,7.012,25.5,25.5,0,0,0-2.758,9.137c-.17,1.221-.255,2.214-.3,2.9-.019.332-.035.6-.046.792A1.453,1.453,0,0,1,392.528,413.537Z" transform="translate(-371.492 -363.492)" fill="#263238"/>
      <path id="Path_35142" data-name="Path 35142" d="M341.532,372.89c-3.771,2.276-3.755,4.346-3.129,6.3a3.951,3.951,0,0,0,4.864,2.581,5.9,5.9,0,0,0,2.542-2.318,10.446,10.446,0,0,1,2.241-2.643,3.322,3.322,0,0,1,2.248-.641Z" transform="translate(-338.09 -352.072)" fill="#00ae9f"/>
      <g id="Group_12018" data-name="Group 12018" transform="translate(0 20.818)" opacity="0.3">
        <path id="Path_35143" data-name="Path 35143" d="M341.532,372.89c-3.771,2.276-3.755,4.346-3.129,6.3a3.951,3.951,0,0,0,4.864,2.581,5.9,5.9,0,0,0,2.542-2.318,10.446,10.446,0,0,1,2.241-2.643,3.322,3.322,0,0,1,2.248-.641Z" transform="translate(-338.09 -372.89)"/>
      </g>
      <path id="Path_35144" data-name="Path 35144" d="M339.58,371.479a4.465,4.465,0,0,1,4.961-1.078,9.92,9.92,0,0,1,3.674,3.377,14.969,14.969,0,0,0,3.384,3.7,4.369,4.369,0,0,0,4.74.332,4.068,4.068,0,0,0,1.611-2.789,9.272,9.272,0,0,0-.224-3.288,7.146,7.146,0,0,0-2.14-4.25c-1.41-1.117-3.365-1.159-5.165-1.113a19.448,19.448,0,0,0-6.1.939,8.458,8.458,0,0,0-4.74,4.157" transform="translate(-339.004 -348.065)" fill="#00ae9f"/>
      <path id="Path_35145" data-name="Path 35145" d="M368.977,395.6v-.325c0-.228-.019-.541-.031-.935-.023-.827-.058-2-.1-3.442s-.1-3.183-.209-5.1-.251-4.03-.541-6.224a19.725,19.725,0,0,0-.626-3.16,16.79,16.79,0,0,0-2.635-5.046,15.15,15.15,0,0,0-1.592-1.746,11.662,11.662,0,0,0-2.824-1.932c-.182-.085-.344-.166-.487-.224l-.386-.143-.224-.093c-.05-.023-.077-.035-.073-.039l.077.023.232.073.386.131c.147.054.309.131.5.212a11.443,11.443,0,0,1,2.874,1.893,14.993,14.993,0,0,1,1.619,1.75,15.548,15.548,0,0,1,1.487,2.318,16.569,16.569,0,0,1,1.159,2.789,19.43,19.43,0,0,1,.634,3.183c.294,2.206.429,4.315.529,6.235s.143,3.655.174,5.107.043,2.631.046,3.442v1.182A.328.328,0,0,1,368.977,395.6Z" transform="translate(-351.074 -348.574)" fill="#263238"/>
      <path id="Path_35146" data-name="Path 35146" d="M386.887,379.063a11.246,11.246,0,0,1-.413-1.619,17.043,17.043,0,0,1-.17-4.547,30.058,30.058,0,0,1,1.437-6.6c.773-2.426,1.823-5.022,2.7-7.808a35.843,35.843,0,0,0,1.082-4.13,37.44,37.44,0,0,0,.552-3.933,58.1,58.1,0,0,0,.12-6.738c-.066-1.932-.166-3.477-.232-4.547-.031-.529-.054-.943-.073-1.236v-.433a.386.386,0,0,1,.019.108,1.319,1.319,0,0,0,.031.321c.023.294.058.707.1,1.236.085,1.07.2,2.623.286,4.543a55.365,55.365,0,0,1-.085,6.761,36.9,36.9,0,0,1-.529,3.96,35.938,35.938,0,0,1-1.082,4.149c-.9,2.8-1.955,5.389-2.735,7.808a30.938,30.938,0,0,0-1.468,6.568,17.633,17.633,0,0,0,.12,4.528c.093.529.178.939.251,1.209.035.131.058.236.077.313A.489.489,0,0,1,386.887,379.063Z" transform="translate(-367.628 -330.336)" fill="#263238"/>
      <path id="Path_35147" data-name="Path 35147" d="M381.883,435.791H359.394l-.514-4.331h23Z" transform="translate(-350.848 -388.014)" fill="#ea3224"/>
      <path id="Path_35148" data-name="Path 35148" d="M366.46,441.39l2.809,12.985h12.22l2.631-12.985Z" transform="translate(-355.5 -394.108)" fill="#ea3224"/>
      <path id="Path_35149" data-name="Path 35149" d="M383.333,442.441c0,.058-4.941.093-11.038.073s-11.045-.077-11.045-.135,4.945-.1,11.045-.077S383.337,442.379,383.333,442.441Z" transform="translate(-352.302 -394.664)" fill="#455a64"/>
      <path id="Path_35150" data-name="Path 35150" d="M384.575,453.875a10.622,10.622,0,0,0-2.032-1.2,7.544,7.544,0,0,0-2.469-.591,7.974,7.974,0,0,0-3.056.537A27.047,27.047,0,0,1,374,453.6a7.6,7.6,0,0,1-2.6,0,5.894,5.894,0,0,1-1.673-.525,3.412,3.412,0,0,1-.406-.255c-.085-.066-.131-.1-.124-.108s.2.116.568.286a6.5,6.5,0,0,0,1.673.487,7.865,7.865,0,0,0,2.538-.05,31.339,31.339,0,0,0,2.986-.993,7.917,7.917,0,0,1,3.137-.533,7.6,7.6,0,0,1,4.018,1.545,4.12,4.12,0,0,1,.359.313C384.54,453.837,384.575,453.875,384.575,453.875Z" transform="translate(-357.18 -400.562)" fill="#fff"/>
      <path id="Path_35151" data-name="Path 35151" d="M383.043,442.544c0,.062-5.057.108-11.3.108s-11.3-.046-11.3-.108,5.057-.1,11.3-.1S383.043,442.486,383.043,442.544Z" transform="translate(-351.811 -394.752)" fill="#263238"/>
    </g>
  </g>
</svg>
